<svg xmlns:dc="http://purl.org/dc/elements/1.1/" xmlns:cc="http://creativecommons.org/ns#" xmlns:rdf="http://www.w3.org/1999/02/22-rdf-syntax-ns#" xmlns:svg="http://www.w3.org/2000/svg" xmlns="http://www.w3.org/2000/svg" height="190.0000000000001" width="692.666666666667" xml:space="preserve" version="1.1" style=""><rect id="backgroundrect" width="100%" height="100%" x="0" y="0" fill="none" stroke="none" class="" style=""/><metadata id="metadata8"><rdf:RDF><cc:Work rdf:about=""><dc:format>image/svg+xml</dc:format><dc:type rdf:resource="http://purl.org/dc/dcmitype/StillImage"/></cc:Work></rdf:RDF></metadata><defs id="defs6"/><g class="currentLayer" style=""><title>Layer 1</title><g id="g10" class=""><g id="g12" stroke-width="0"><path id="path14" style="fill:#af783c;fill-opacity:1;fill-rule:nonzero;stroke:none" d="m2.5203066412144954,523.0800004322303 c0.638026660223338,0.08639999912746033 1.5651066508609064,0.11453333217667964 2.5494799742532117,0.11453333217667964 c5.417719945287318,0 8.315146582693338,-3.0129333029062044 8.315146582693338,-8.28639991631698 c0.028666666377166618,-4.604133286836932 -2.578159973963577,-7.530799923947663 -7.908893253462692,-7.530799923947663 c-1.304159986829498,0 -2.289066643549751,0.11466666550866647 -2.955733303483858,0.25999999737430185 zM0,505.8117339399531 c1.53593331782219,-0.259866664042315 3.3609332993918084,-0.4343999956130643 5.359893279204633,-0.4343999956130643 c3.621359963428468,0 6.199479937392449,0.8693333245540759 7.908853253463096,2.434399975415386 C15.035999848153855,509.4054672369939 16.04999983791363,511.66386721418667 16.04999983791363,514.8226671822864 C16.04999983791363,518.0092004834395 15.035999848153855,520.6160004571138 13.24010653295696,522.4133337722963 C11.385933218348624,524.2388004205278 8.372919915443228,525.2237337439144 4.577599953771554,525.2237337439144 C2.752079972207187,525.2237337439144 1.27499998712398,525.1373337447869 0,524.9920004129214 v-19.180266472968242 " stroke-width="0"/><path id="path16" style="fill:#af783c;fill-opacity:1;fill-rule:nonzero;stroke:none" d="m20.9218664553801,518.0664004828618 c0,3.070933302320472 1.7379999824482177,5.388133278919442 4.229733290617937,5.388133278919442 c2.433866642087439,0 4.259333290319011,-2.2881333102258434 4.259333290319011,-5.4453332783417885 c0,-2.3745333093533034 -1.187999988002579,-5.358399945886381 -4.2015999575687175,-5.358399945886381 c-2.98333330320513,0 -4.287466623368231,2.7813333052450955 -4.287466623368231,5.415599945308727 zm11.095866554611295,-0.14519999853364857 c0,5.1879999476072225 -3.621333296762071,7.44786659145186 -6.981733262825932,7.44786659145186 c-3.766666628627706,0 -6.721466598787656,-2.781199971913109 -6.721466598787656,-7.215599927130817 c0,-4.664133286231001 3.099999968693599,-7.417733258422839 6.9531999297807525,-7.417733258422839 c4.027066625997969,0 6.7499999318328365,2.9281333037625856 6.7499999318328365,7.185466594101795 " stroke-width="0"/><path id="path18" style="fill:#af783c;fill-opacity:1;fill-rule:nonzero;stroke:none" d="m36.0494663026089,511.02786722060955 l1.883333314313853,7.125599928039712 c0.3765333295307838,1.5650666508613102 0.7526666590656071,3.0129333029062044 1.014133323091764,4.462533288266927 h0.08639999912746033 c0.3187999967804901,-1.4187999856717672 0.7822666587666814,-2.926666637110731 1.2458666540848595,-4.431866621909958 l2.289066643549751,-7.156266594396681 h2.143199978356168 l2.1734666447171764,7.010933262531046 c0.5213333280684719,1.6797333163699768 0.9270666573043697,3.1583999681038266 1.245733320752873,4.577199953775594 h0.08706666578739443 c0.2311999976651484,-1.4187999856717672 0.6082666605238796,-2.8974666374056173 1.0718666558420578,-4.5495999540543215 l1.9989333131464273,-7.038533262252318 H53.809332789921534 L49.289599502232264,525.0493337456757 h-2.317733309926917 l-2.144266645012063,-6.6933332657384375 c-0.49213332836335805,-1.562399984221574 -0.8978666575992557,-2.953599970172069 -1.2458666540848595,-4.606666620144681 h-0.0577333327502937 c-0.3474666631576567,1.6827999830056737 -0.7822666587666814,3.130666635050568 -1.2745333204620262,4.635866619849795 L39.98959959615147,525.0493337456757 h-2.317733309926917 l-4.229733290617937,-14.021466525066131 h2.6073333070022935 " stroke-width="0"/><path id="path20" style="fill:#af783c;fill-opacity:1;fill-rule:nonzero;stroke:none" d="m56.363999430789036,514.8226671822864 c0,-1.4775999850779555 -0.029066666373127083,-2.6358666400474733 -0.1161333321605215,-3.7947999616769255 h2.259466643848677 l0.1453333318656354,2.31719997659897 h0.0577333327502937 c0.6953333263112739,-1.3035999868351533 2.317733309926917,-2.609333306982096 4.635466619853834,-2.609333306982096 c1.9410666470641467,0 4.954133283302338,1.1587999882974653 4.954133283302338,5.969733273045957 V525.0493337456757 h-2.549466640920013 v-8.083866585028998 c0,-2.2573333105368873 -0.8406666581769092,-4.14279995816253 -3.2447999672312866,-4.14279995816253 c-1.6515999833207575,0 -2.955733303483858,1.1890666546584736 -3.4193332988020364,2.609466640314083 c-0.11559999883257421,0.31719999679664823 -0.17279999825492062,0.7519999924056731 -0.17279999825492062,1.1863999880187373 V525.0493337456757 H56.363999430789036 v-10.226666563389205 " stroke-width="0"/><path id="path22" style="fill:#af783c;fill-opacity:1;fill-rule:nonzero;stroke:none" d="m72.44733260169937,504.47840062008487 h2.5495999742519997 V525.0493337456757 h-2.5495999742519997 v-20.57093312559079 " stroke-width="0"/><path id="path24" style="fill:#af783c;fill-opacity:1;fill-rule:nonzero;stroke:none" d="m80.87919918321398,518.0664004828618 c0,3.070933302320472 1.7379999824482177,5.388133278919442 4.22959995728595,5.388133278919442 c2.4333333087594915,0 4.258933290323051,-2.2881333102258434 4.258933290323051,-5.4453332783417885 c0,-2.3745333093533034 -1.187999988002579,-5.358399945886381 -4.20106662424077,-5.358399945886381 c-2.9838666365330777,0 -4.287466623368231,2.7813333052450955 -4.287466623368231,5.415599945308727 zm11.095333221283347,-0.14519999853364857 c0,5.1879999476072225 -3.6209332967661103,7.44786659145186 -6.981866596157919,7.44786659145186 c-3.766133295299759,0 -6.7213332654556694,-2.781199971913109 -6.7213332654556694,-7.215599927130817 c0,-4.664133286231001 3.1005333020215464,-7.417733258422839 6.9531999297807525,-7.417733258422839 c4.027599959325916,0 6.7499999318328365,2.9281333037625856 6.7499999318328365,7.185466594101795 " stroke-width="0"/><path id="path26" style="fill:#af783c;fill-opacity:1;fill-rule:nonzero;stroke:none" d="m102.5827989640328,517.892000484623 c-2.781199971913109,-0.05626666609843866 -5.939066606688988,0.4358666622649194 -5.939066606688988,3.159866634755682 c0,1.678666649714082 1.1005333222192242,2.432266642103597 2.3750666426812503,2.432266642103597 c1.8541333146087393,0 3.042666635939266,-1.1587999882974653 3.447866631847216,-2.346799976300044 c0.0874666657833549,-0.28906666374742895 0.1161333321605215,-0.5786666608228052 0.1161333321605215,-0.8094666584919931 zm2.461999975136658,3.797333294984675 c0,1.2161333210517986 0.05879999940618827,2.4042666423863643 0.2030666646159291,3.3599999660679005 h-2.289066643549751 l-0.2019999979600345,-1.7666666488253844 h-0.08706666578739443 c-0.7822666587666814,1.099999988891277 -2.289066643549751,2.0863999789297822 -4.287466623368231,2.0863999789297822 c-2.8401333046512836,0 -4.2879999566961775,-1.9999999798023218 -4.2879999566961775,-4.029199959309758 c0,-3.3879999657851334 3.0130666362381913,-5.241066613737978 8.430799914858708,-5.212933280688759 v-0.29119999705921806 c0,-1.1275999886125492 -0.3187999967804901,-3.2453333005592344 -3.1870666344809933,-3.2145333008702788 c-1.3327999865402673,0 -2.6942666394577013,0.37599999620283653 -3.679599962840312,1.0426666561369438 l-0.5797333274786997,-1.709333316071051 c1.1587999882974653,-0.7239999926884405 2.868666637696464,-1.218799987691535 4.635333286521848,-1.218799987691535 c4.288133290028165,0 5.330799946165109,2.9281333037625856 5.330799946165109,5.709333275675695 V521.6893337796078 " stroke-width="0"/><path id="path28" style="fill:#af783c;fill-opacity:1;fill-rule:nonzero;stroke:none" d="m118.7234654676975,516.7330671629936 c0,-0.31706666346466145 -0.028666666377166618,-0.7514666590777257 -0.1161333321605215,-1.0691999892023212 c-0.37613332953482337,-1.5947999838943714 -1.7666666488253844,-2.9281333037625856 -3.678666629516404,-2.9281333037625856 c-2.6365333067074075,0 -4.2015999575687175,2.3187999765828122 -4.2015999575687175,5.387999945587454 c0,2.8417333046351256 1.4202666523236223,5.1879999476072225 4.14319995815849,5.1879999476072225 c1.709999982730985,0 3.2734666336084532,-1.158266654969518 3.7370666289266317,-3.0410666359554237 c0.0874666657833549,-0.34946666313745905 0.1161333321605215,-0.6958666596392212 0.1161333321605215,-1.101599988875119 zm2.520799974542846,-12.25466654290876 V521.4294671155654 c0,1.2437333207730705 0.05786666608228052,2.66413330642868 0.11559999883257421,3.619866630110216 h-2.2593333105166895 l-0.1161333321605215,-2.4333333087594915 h-0.08653333245944714 c-0.7541333257174623,1.562399984221574 -2.433866642087439,2.7530666388638894 -4.722799952305203,2.7530666388638894 c-3.3890666324410277,0 -6.0261332724763825,-2.8693333043563976 -6.0261332724763825,-7.127599928019515 c-0.028666666377166618,-4.664133286231001 2.8974666374056173,-7.50573325753414 6.286533269846645,-7.50573325753414 c2.17333331138519,0 3.592666630384904,1.0161333230715663 4.230666623941845,2.1177333119466852 h0.057333332754333236 v-8.375066582088216 h2.520799974542846 " stroke-width="0"/><path id="path30" style="fill:#af783c;fill-opacity:1;fill-rule:nonzero;stroke:none" d="m130.83906534534398,525.0493337456757 v-1.565199984193297 l1.9989333131464273,-1.940133313740239 c4.8086666181047155,-4.578533287095462 7.011333262527007,-7.010933262531046 7.011333262527007,-9.849466567198487 c0,-1.9145333139987692 -0.8986666575911767,-3.679599962840312 -3.709333295873373,-3.679599962840312 c-1.707999982751183,0 -3.1279999684108315,0.867733324570234 -3.9973332929649072,1.5942666505664242 l-0.8114666584717954,-1.79746664851434 c1.2750666537899737,-1.0729333224979523 3.158133301439853,-1.9119999806910197 5.302133279787942,-1.9119999806910197 c4.055999959039109,0 5.7653332751101605,2.781866638573043 5.7653332751101605,5.475066611374849 c0,3.4759999648964355 -2.519999974550925,6.286399936514658 -6.4893332677986,10.11199989788054 l-1.4773333184139819,1.3905333192905611 v0.057333332754333236 h8.429333248206852 v2.1146666453109884 h-12.02226654525573 " stroke-width="0"/><path id="path32" style="fill:#af783c;fill-opacity:1;fill-rule:nonzero;stroke:none" d="m148.0226651718096,515.7212005065456 c0,4.894799950568203 1.5066666514510825,7.675999922481311 3.8239999613820395,7.675999922481311 c2.578666640625127,0 3.8239999613820395,-3.0411999692874105 3.8239999613820395,-7.850533254052061 c0,-4.635999953181782 -1.1586666549654785,-7.677599922465153 -3.8239999613820395,-7.677599922465153 c-2.2013333111024225,0 -3.8239999613820395,2.72453330581871 -3.8239999613820395,7.852133254035902 zm10.226666563389205,-0.28906666374742895 c0,6.400933268691338 -2.405333309042259,9.936933232981843 -6.547999933872802,9.936933232981843 c-3.678666629516404,0 -6.199999937387198,-3.447866631847216 -6.2573332701415305,-9.677066568939528 c0,-6.346933269236675 2.751999972207995,-9.79226656777614 6.575999933590034,-9.79226656777614 c3.939999960210574,0 6.2293332704242985,3.5349332976346104 6.2293332704242985,9.532399903733825 " stroke-width="0"/><path id="path34" style="fill:#af783c;fill-opacity:1;fill-rule:nonzero;stroke:none" d="m162.88933168834018,515.7212005065456 c0,4.894799950568203 1.505333318131214,7.675999922481311 3.8239999613820395,7.675999922481311 c2.5773333073052584,0 3.8239999613820395,-3.0411999692874105 3.8239999613820395,-7.850533254052061 c0,-4.635999953181782 -1.1586666549654785,-7.677599922465153 -3.8239999613820395,-7.677599922465153 c-2.2026666444222904,0 -3.8239999613820395,2.72453330581871 -3.8239999613820395,7.852133254035902 zm10.225333230069337,-0.28906666374742895 c0,6.400933268691338 -2.403999975722391,9.936933232981843 -6.546666600552934,9.936933232981843 c-3.678666629516404,0 -6.199999937387198,-3.447866631847216 -6.258666603461399,-9.677066568939528 c0,-6.346933269236675 2.751999972207995,-9.79226656777614 6.5773332669099025,-9.79226656777614 c3.939999960210574,0 6.22799993710443,3.5349332976346104 6.22799993710443,9.532399903733825 " stroke-width="0"/><path id="path36" style="fill:#af783c;fill-opacity:1;fill-rule:nonzero;stroke:none" d="m174.5959982367831,528.6425337093885 c0.6373333268970066,-1.740133315760007 1.4199999856596486,-4.838533284469764 1.7386666491081517,-6.9531999297807525 l2.8386666379994288,-0.2921333303831258 c-0.6946666596513398,2.4639999751164607 -1.9693333134453528,5.680133275970581 -2.7813333052450955,7.04266659554391 l-1.7959999818624852,0.20266666461996863 " stroke-width="0"/><path id="path38" style="fill:#af783c;fill-opacity:1;fill-rule:nonzero;stroke:none" d="m183.75199814431812,515.7212005065456 c0,4.894799950568203 1.5066666514510825,7.675999922481311 3.8239999613820395,7.675999922481311 c2.578666640625127,0 3.8239999613820395,-3.0411999692874105 3.8239999613820395,-7.850533254052061 c0,-4.635999953181782 -1.1586666549654785,-7.677599922465153 -3.8239999613820395,-7.677599922465153 c-2.2013333111024225,0 -3.8239999613820395,2.72453330581871 -3.8239999613820395,7.852133254035902 zm10.226666563389205,-0.28906666374742895 c0,6.400933268691338 -2.403999975722391,9.936933232981843 -6.546666600552934,9.936933232981843 c-3.6799999628362725,0 -6.199999937387198,-3.447866631847216 -6.258666603461399,-9.677066568939528 c0,-6.346933269236675 2.753333305527863,-9.79226656777614 6.5773332669099025,-9.79226656777614 c3.939999960210574,0 6.22799993710443,3.5349332976346104 6.22799993710443,9.532399903733825 " stroke-width="0"/><path id="path40" style="fill:#af783c;fill-opacity:1;fill-rule:nonzero;stroke:none" d="m198.61733132752886,515.7212005065456 c0,4.894799950568203 1.5066666514510825,7.675999922481311 3.825333294701908,7.675999922481311 c2.578666640625127,0 3.8239999613820395,-3.0411999692874105 3.8239999613820395,-7.850533254052061 c0,-4.635999953181782 -1.1586666549654785,-7.677599922465153 -3.8239999613820395,-7.677599922465153 c-2.2026666444222904,0 -3.825333294701908,2.72453330581871 -3.825333294701908,7.852133254035902 zm10.227999896709074,-0.28906666374742895 c0,6.400933268691338 -2.403999975722391,9.936933232981843 -6.547999933872802,9.936933232981843 c-3.6799999628362725,0 -6.199999937387198,-3.447866631847216 -6.2573332701415305,-9.677066568939528 c0,-6.346933269236675 2.751999972207995,-9.79226656777614 6.575999933590034,-9.79226656777614 c3.939999960210574,0 6.2293332704242985,3.5349332976346104 6.2293332704242985,9.532399903733825 " stroke-width="0"/><path id="path42" style="fill:#af783c;fill-opacity:1;fill-rule:nonzero;stroke:none" d="m213.48399784405945,515.7212005065456 c0,4.894799950568203 1.5066666514510825,7.675999922481311 3.8239999613820395,7.675999922481311 c2.5799999739449953,0 3.8239999613820395,-3.0411999692874105 3.8239999613820395,-7.850533254052061 c0,-4.635999953181782 -1.1586666549654785,-7.677599922465153 -3.8239999613820395,-7.677599922465153 c-2.2013333111024225,0 -3.8239999613820395,2.72453330581871 -3.8239999613820395,7.852133254035902 zm10.226666563389205,-0.28906666374742895 c0,6.400933268691338 -2.403999975722391,9.936933232981843 -6.546666600552934,9.936933232981843 c-3.6799999628362725,0 -6.199999937387198,-3.447866631847216 -6.258666603461399,-9.677066568939528 c0,-6.346933269236675 2.753333305527863,-9.79226656777614 6.5773332669099025,-9.79226656777614 c3.939999960210574,0 6.22799993710443,3.5349332976346104 6.22799993710443,9.532399903733825 " stroke-width="0"/><path id="path44" style="fill:#af783c;fill-opacity:1;fill-rule:nonzero;stroke:none" d="m234.28799763396322,509.637333901319 v6.80773326458313 h6.547999933872802 v1.7390666491041122 h-6.547999933872802 V525.0493337456757 h-1.8533333146168183 v-6.86519993066945 h-6.546666600552934 v-1.7390666491041122 h6.546666600552934 v-6.80773326458313 h1.8533333146168183 " stroke-width="0"/><path id="path46" style="fill:#af783c;fill-opacity:1;fill-rule:nonzero;stroke:none" d="m252.7773307805757,519.4294671357632 c0,0.31719999679664823 0.030666666356968936,0.6369333269010461 0.1173333321484029,0.9265333239764223 c0.46399999531413866,1.7677333154812787 1.9693333134453528,2.9838666365330777 3.8239999613820395,2.9838666365330777 c2.694666639453662,0 4.258666623659077,-2.1734666447171764 4.258666623659077,-5.387999945587454 c0,-2.8119999716020647 -1.447999985376881,-5.216133280656442 -4.199999957584876,-5.216133280656442 c-1.7106666493909193,0 -3.3333332996705365,1.2161333210517986 -3.85333329441914,3.130666635050568 c-0.08799999911130219,0.31773333012459554 -0.14666666518550361,0.6641333266263577 -0.14666666518550361,1.0709333225181499 zm-2.518666641231057,-14.95106651567825 h2.518666641231057 v8.806799911061544 h0.05866666607420145 c0.8986666575911767,-1.5614666508976662 2.5213333078707936,-2.549466640920013 4.779999951727549,-2.549466640920013 c3.505333297933536,0 5.939999940012895,2.898933304057472 5.939999940012895,7.128133261347462 c0,5.013466616036474 -3.1866666344850327,7.5051999242061935 -6.315999936215732,7.5051999242061935 c-2.026666646199686,0 -3.6493332964793033,-0.7838666587505234 -4.722666618973216,-2.6087999736541483 h-0.057333332754333236 l-0.1453333318656354,2.289066643549751 h-2.1719999780653216 c0.057333332754333236,-0.9557333236815362 0.11599999882853468,-2.3761333093371455 0.11599999882853468,-3.619866630110216 v-16.95106649548057 " stroke-width="0"/><path id="path48" style="fill:#af783c;fill-opacity:1;fill-rule:nonzero;stroke:none" d="m266.746663972835,515.4024005097651 c0,-1.6530666499726123 -0.027999999717232507,-3.07186663564438 -0.11599999882853468,-4.374533289155625 h2.230666644139523 l0.11599999882853468,2.7813333052450955 h0.08666666579143396 c0.6373333268970066,-1.8822666476579586 2.2026666444222904,-3.073466635628221 3.9119999604933415,-3.073466635628221 c0.25999999737430185,0 0.46399999531413866,0.032266666340810796 0.6946666596513398,0.06039999939003012 v2.4035999757264306 c-0.26133333069417003,-0.05719999942234641 -0.5213333280684719,-0.05719999942234641 -0.8693333245540759,-0.05719999942234641 c-1.7973333151823534,0 -3.0706666356564982,1.3333333198682147 -3.418666632142102,3.2453333005592344 c-0.057333332754333236,0.3451999965138807 -0.08666666579143396,0.781199992110787 -0.08666666579143396,1.1869333213466846 V525.0493337456757 h-2.5493333075880265 v-9.646933235910506 " stroke-width="0"/><path id="path50" style="fill:#af783c;fill-opacity:1;fill-rule:nonzero;stroke:none" d="m283.46533047066254,517.892000484623 c-2.7813333052450955,-0.05626666609843866 -5.938666606693028,0.4358666622649194 -5.938666606693028,3.159866634755682 c0,1.678666649714082 1.099999988891277,2.432266642103597 2.37466664268529,2.432266642103597 c1.8546666479366865,0 3.042666635939266,-1.1587999882974653 3.4479999651792026,-2.346799976300044 c0.08799999911130219,-0.28906666374742895 0.11599999882853468,-0.5786666608228052 0.11599999882853468,-0.8094666584919931 zm2.4626666417965923,3.797333294984675 c0,1.2161333210517986 0.05866666607420145,2.4042666423863643 0.20266666461996863,3.3599999660679005 h-2.2893333102137245 l-0.2013333313001004,-1.7666666488253844 h-0.08666666579143396 c-0.782666658762642,1.099999988891277 -2.2893333102137245,2.0863999789297822 -4.2879999566961775,2.0863999789297822 c-2.839999971319297,0 -4.2879999566961775,-1.9999999798023218 -4.2879999566961775,-4.029199959309758 c0,-3.3879999657851334 3.013333302902165,-5.241066613737978 8.43066658152672,-5.212933280688759 v-0.29119999705921806 c0,-1.1275999886125492 -0.3186666634485033,-3.2453333005592344 -3.1866666344850327,-3.2145333008702788 c-1.3333333198682147,0 -2.694666639453662,0.37599999620283653 -3.6799999628362725,1.0426666561369438 l-0.5799999941426733,-1.709333316071051 c1.1586666549654785,-0.7239999926884405 2.8693333043563976,-1.218799987691535 4.635999953181782,-1.218799987691535 c4.2879999566961775,0 5.330666612833121,2.9281333037625856 5.330666612833121,5.709333275675695 V521.6893337796078 " stroke-width="0"/><path id="path52" style="fill:#af783c;fill-opacity:1;fill-rule:nonzero;stroke:none" d="m290.04666373753207,514.8226671822864 c0,-1.4775999850779555 -0.029333333037100725,-2.6358666400474733 -0.11599999882853468,-3.7947999616769255 h2.2586666438567558 l0.1453333318656354,2.31719997659897 h0.057333332754333236 c0.695999992971208,-1.3035999868351533 2.3186666432508254,-2.609333306982096 4.635999953181782,-2.609333306982096 c1.9413333137281206,0 4.954666616630285,1.1587999882974653 4.954666616630285,5.969733273045957 V525.0493337456757 h-2.5493333075880265 v-8.083866585028998 c0,-2.2573333105368873 -0.8399999915169751,-4.14279995816253 -3.2453333005592344,-4.14279995816253 c-1.6519999833167178,0 -2.955999970147832,1.1890666546584736 -3.418666632142102,2.609466640314083 c-0.11599999882853468,0.31719999679664823 -0.1733333315828679,0.7519999924056731 -0.1733333315828679,1.1863999880187373 V525.0493337456757 h-2.5493333075880265 v-10.226666563389205 " stroke-width="0"/><path id="path54" style="fill:#af783c;fill-opacity:1;fill-rule:nonzero;stroke:none" d="m315.6893301452376,516.7330671629936 c0,-0.31706666346466145 -0.027999999717232507,-0.7514666590777257 -0.11599999882853468,-1.0691999892023212 c-0.37599999620283653,-1.5947999838943714 -1.7666666488253844,-2.9281333037625856 -3.678666629516404,-2.9281333037625856 c-2.63599997337946,0 -4.201333290904745,2.3187999765828122 -4.201333290904745,5.387999945587454 c0,2.8417333046351256 1.4199999856596486,5.1879999476072225 4.142666624830543,5.1879999476072225 c1.7106666493909193,0 3.274666633596335,-1.158266654969518 3.737333295590606,-3.0410666359554237 c0.08799999911130219,-0.34946666313745905 0.11599999882853468,-0.6958666596392212 0.11599999882853468,-1.101599988875119 zm2.5213333078707936,-12.25466654290876 V521.4294671155654 c0,1.2437333207730705 0.057333332754333236,2.66413330642868 0.11599999882853468,3.619866630110216 h-2.2599999771766237 l-0.1173333321484029,-2.4333333087594915 h-0.08533333247156574 c-0.7533333257255412,1.562399984221574 -2.4333333087594915,2.7530666388638894 -4.722666618973216,2.7530666388638894 c-3.389333299105002,0 -6.02666660580433,-2.8693333043563976 -6.02666660580433,-7.127599928019515 c-0.027999999717232507,-4.664133286231001 2.8973333040736304,-7.50573325753414 6.286666603178632,-7.50573325753414 c2.17333331138519,0 3.5933332970448384,1.0161333230715663 4.230666623941845,2.1177333119466852 h0.057333332754333236 v-8.375066582088216 h2.5213333078707936 " stroke-width="0"/><path id="path56" style="fill:#af783c;fill-opacity:1;fill-rule:nonzero;stroke:none" d="m328.6159966813599,504.47840062008487 h2.5506666409078944 V525.0493337456757 h-2.5506666409078944 v-20.57093312559079 " stroke-width="0"/><path id="path58" style="fill:#af783c;fill-opacity:1;fill-rule:nonzero;stroke:none" d="m337.0493299295263,518.0664004828618 c0,3.070933302320472 1.7373333157882835,5.388133278919442 4.229333290621977,5.388133278919442 c2.4333333087594915,0 4.258666623659077,-2.2881333102258434 4.258666623659077,-5.4453332783417885 c0,-2.3745333093533034 -1.187999988002579,-5.358399945886381 -4.201333290904745,-5.358399945886381 c-2.983999969865064,0 -4.28666662337631,2.7813333052450955 -4.28666662337631,5.415599945308727 zm11.095999887943282,-0.14519999853364857 c0,5.1879999476072225 -3.621333296762071,7.44786659145186 -6.98266659614984,7.44786659145186 c-3.766666628627706,0 -6.7213332654556694,-2.781199971913109 -6.7213332654556694,-7.215599927130817 c0,-4.664133286231001 3.099999968693599,-7.417733258422839 6.951999929792871,-7.417733258422839 c4.0279999593218765,0 6.751999931812638,2.9281333037625856 6.751999931812638,7.185466594101795 " stroke-width="0"/><path id="path60" style="fill:#af783c;fill-opacity:1;fill-rule:nonzero;stroke:none" d="m360.80932968957796,516.5612004980626 c0,-0.4342666622810775 -0.029333333037100725,-0.8118666584677559 -0.1453333318656354,-1.1290666552644042 c-0.46399999531413866,-1.5083999847669112 -1.6799999830339503,-2.723999972490762 -3.562666630687869,-2.723999972490762 c-2.43466664207936,0 -4.171999957867643,2.057333312556655 -4.171999957867643,5.301066613132048 c0,2.7535999721918367 1.4186666523397804,5.042666615741587 4.142666624830543,5.042666615741587 c1.5933333172425164,0 3.013333302902165,-0.9879999900223471 3.534666630970637,-2.609333306982096 c0.14399999854576717,-0.43599999559690616 0.20266666461996863,-0.9275999906323169 0.20266666461996863,-1.3625333195733285 zm2.5493333075880265,6.430799935056386 c0,3.2437333005753923 -0.6666666599341073,5.186399947623381 -1.9999999798023218,6.4317332683802935 c-1.3906666526225477,1.2453333207569124 -3.3586666327480326,1.680266649697924 -5.127999948213153,1.680266649697924 c-1.678666649714082,0 -3.5333332976507688,-0.40426666258404265 -4.663999952899014,-1.1589333216294522 l0.6386666602168748,-1.9691999801133662 c0.9266666573084091,0.6067999938720244 2.37466664268529,1.130666655248246 4.113333291793442,1.130666655248246 c2.6079999736622277,0 4.518666621033379,-1.3625333195733285 4.518666621033379,-4.928133283564907 v-1.5333333178484467 h-0.057333332754333236 c-0.7533333257255412,1.3015999868553512 -2.287999976893856,2.3469333096320315 -4.461333288279046,2.3469333096320315 c-3.4773332982163034,0 -5.967999939730128,-2.9562666368118053 -5.967999939730128,-6.838533264272086 c0,-4.7510666186864094 3.0986666353737307,-7.417733258422839 6.343999935932965,-7.417733258422839 c2.4333333087594915,0 3.737333295590606,1.2483999873926093 4.374666622487612,2.406799975694114 h0.057333332754333236 l0.08799999911130219,-2.1146666453109884 h2.2599999771766237 c-0.08666666579143396,0.9838666567307556 -0.11599999882853468,2.1427999783602076 -0.11599999882853468,3.8229332947261447 V522.992000433119 " stroke-width="0"/><path id="path62" style="fill:#af783c;fill-opacity:1;fill-rule:nonzero;stroke:none" d="m369.1573296052728,518.0664004828618 c0,3.070933302320472 1.7373333157882835,5.388133278919442 4.230666623941845,5.388133278919442 c2.431999975439623,0 4.257333290339209,-2.2881333102258434 4.257333290339209,-5.4453332783417885 c0,-2.3745333093533034 -1.187999988002579,-5.358399945886381 -4.201333290904745,-5.358399945886381 c-2.983999969865064,0 -4.28666662337631,2.7813333052450955 -4.28666662337631,5.415599945308727 zm11.095999887943282,-0.14519999853364857 c0,5.1879999476072225 -3.621333296762071,7.44786659145186 -6.98266659614984,7.44786659145186 c-3.766666628627706,0 -6.7213332654556694,-2.781199971913109 -6.7213332654556694,-7.215599927130817 c0,-4.664133286231001 3.099999968693599,-7.417733258422839 6.951999929792871,-7.417733258422839 c4.0279999593218765,0 6.751999931812638,2.9281333037625856 6.751999931812638,7.185466594101795 " stroke-width="0"/><path id="path64" style="fill:#af783c;fill-opacity:1;fill-rule:nonzero;stroke:none" d="m383.12399613089235,522.4706671050506 c0.782666658762642,0.46399999531413866 2.1146666453109884,0.9838666567307556 3.3906666324248698,0.9838666567307556 c1.8239999815797174,0 2.694666639453662,-0.8974666576032952 2.694666639453662,-2.0854666456058744 c0,-1.2155999877238512 -0.7253333260083088,-1.8541333146087393 -2.5799999739449953,-2.548933307592066 c-2.5493333075880265,-0.9281333239602642 -3.737333295590606,-2.2895999768776982 -3.737333295590606,-3.969333293247675 c0,-2.2603999771725842 1.8546666479366865,-4.115066625109271 4.838666617801751,-4.115066625109271 c1.4199999856596486,0 2.6653333064165605,0.37759999618667833 3.41999996546197,0.8707999912059309 l-0.6093333271797741,1.8537333146127788 c-0.5493333277857044,-0.3469333298297095 -1.5639999842054157,-0.8390666581930675 -2.8679999710365296,-0.8390666581930675 c-1.5066666514510825,0 -2.317333309930957,0.8681333245661945 -2.317333309930957,1.911866647359033 c0,1.1589333216294522 0.8106666584798745,1.680266649697924 2.63599997337946,2.4042666423863643 c2.403999975722391,0.898399990927203 3.678666629516404,2.1145333119790015 3.678666629516404,4.199999957584876 c0,2.4921333081656796 -1.9413333137281206,4.231733290597739 -5.214666614004587,4.231733290597739 c-1.534666651168315,0 -2.9546666368279637,-0.406266662563845 -3.939999960210574,-0.9863999900385051 l0.6079999938599059,-1.9119999806910197 " stroke-width="0"/><path id="path66" style="fill:#af783c;fill-opacity:1;fill-rule:nonzero;stroke:none" d="m401.09199594943647,525.0493337456757 v-14.021466525066131 h2.5493333075880265 V525.0493337456757 zm2.839999971319297,-17.961466485276706 c0,0.8666666579143395 -0.6093333271797741,1.562933317549521 -1.6226666502796172,1.562933317549521 c-0.9266666573084091,0 -1.535999984488183,-0.6962666596351818 -1.535999984488183,-1.562933317549521 c0,-0.8693333245540759 0.6373333268970066,-1.5933333172425164 1.5933333172425164,-1.5933333172425164 c0.9266666573084091,0 1.565333317525284,0.6947999929833266 1.565333317525284,1.5933333172425164 " stroke-width="0"/><path id="path68" style="fill:#af783c;fill-opacity:1;fill-rule:nonzero;stroke:none" d="m407.8719958809663,514.8226671822864 c0,-1.4775999850779555 -0.029333333037100725,-2.6358666400474733 -0.11599999882853468,-3.7947999616769255 h2.2599999771766237 l0.1453333318656354,2.31719997659897 h0.057333332754333236 c0.6946666596513398,-1.3035999868351533 2.317333309930957,-2.609333306982096 4.634666619861914,-2.609333306982096 c1.9413333137281206,0 4.954666616630285,1.1587999882974653 4.954666616630285,5.969733273045957 V525.0493337456757 h-2.5493333075880265 v-8.083866585028998 c0,-2.2573333105368873 -0.8399999915169751,-4.14279995816253 -3.2453333005592344,-4.14279995816253 c-1.6506666499968496,0 -2.9546666368279637,1.1890666546584736 -3.417333298822234,2.609466640314083 c-0.11599999882853468,0.31719999679664823 -0.1746666649027361,0.7519999924056731 -0.1746666649027361,1.1863999880187373 V525.0493337456757 h-2.5493333075880265 v-10.226666563389205 " stroke-width="0"/><path id="path70" style="fill:#af783c;fill-opacity:1;fill-rule:nonzero;stroke:none" d="m431.08399564655207,511.02786722060955 l2.7506666388881267,7.852133254035902 c0.46399999531413866,1.3015999868553512 0.8413333248368434,2.459866641824869 1.130666655248246,3.6197332967782287 h0.08799999911130219 c0.3186666634485033,-1.1598666549533598 0.7239999926884405,-2.3181333099228776 1.186666654682711,-3.6197332967782287 l2.723999972490762,-7.852133254035902 h2.6653333064165605 L436.12399559565387,525.0493337456757 h-2.4333333087594915 l-5.330666612833121,-14.021466525066131 h2.723999972490762 " stroke-width="0"/><path id="path72" style="fill:#af783c;fill-opacity:1;fill-rule:nonzero;stroke:none" d="m452.64266209550124,516.6758671635713 c0.027999999717232507,-1.5931999839105295 -0.6666666599341073,-4.11466662511331 -3.5333332976507688,-4.11466662511331 c-2.609333306982096,0 -3.709333295873373,2.3469333096320315 -3.9119999604933415,4.11466662511331 zm-7.474666591181212,1.8265333148874672 c0.057333332754333236,3.4469332985233083 2.230666644139523,4.866666617518983 4.80933328476465,4.866666617518983 c1.8253333148995856,0 2.9546666368279637,-0.31719999679664823 3.8813332941363727,-0.7239999926884405 l0.46399999531413866,1.8255999815635595 c-0.8973333242713085,0.40413332925205586 -2.4626666417965923,0.898399990927203 -4.693333285936116,0.898399990927203 c-4.31599995641341,0 -6.895999930358405,-2.8693333043563976 -6.895999930358405,-7.098399928314401 c0,-4.22919995728999 2.491999974833693,-7.5349332572392544 6.5773332669099025,-7.5349332572392544 c4.606666620144681,0 5.794666608147261,3.9999999596046436 5.794666608147261,6.579199933557718 c0,0.5207999947405246 -0.029333333037100725,0.898399990927203 -0.08799999911130219,1.187466654674632 h-9.849333233866501 " stroke-width="0"/><path id="path74" style="fill:#af783c;fill-opacity:1;fill-rule:nonzero;stroke:none" d="m468.26266193775734,524.5570670839803 c-0.6666666599341073,0.31773333012459554 -2.145333311667957,0.8119999917997427 -4.0279999593218765,0.8119999917997427 c-4.230666623941845,0 -6.98266659614984,-2.8693333043563976 -6.98266659614984,-7.155733261068734 c0,-4.318799956385134 2.955999970147832,-7.477599924484921 7.533333257255412,-7.477599924484921 c1.505333318131214,0 2.8386666379994288,0.37759999618667833 3.534666630970637,0.7562666590292514 l-0.5799999941426733,1.940133313740239 c-0.6079999938599059,-0.3187999967804901 -1.5639999842054157,-0.6666666599341073 -2.9546666368279637,-0.6666666599341073 c-3.2159999675221336,0 -4.953333283310417,2.4051999757102727 -4.953333283310417,5.30093327980006 c0,3.2453333005592344 2.0853333122738875,5.245333280361557 4.866666617518983,5.245333280361557 c1.447999985376881,0 2.405333309042259,-0.34893332980951175 3.1293333017306995,-0.6666666599341073 l0.43466666227703793,1.9119999806910197 " stroke-width="0"/><path id="path76" style="fill:#af783c;fill-opacity:1;fill-rule:nonzero;stroke:none" d="m474.69599520612144,507.66640058788977 v3.3614666327197558 h3.6493332964793033 V512.9680005343498 h-3.6493332964793033 v7.562533256960527 c0,1.7374666491202704 0.4919999950313712,2.721333305851026 1.9119999806910197,2.721333305851026 c0.6946666596513398,0 1.1013333222111452,-0.057333332754333236 1.4773333184139819,-0.17186666493101288 l0.11599999882853468,1.940133313740239 c-0.4919999950313712,0.17439999823876248 -1.2746666537940132,0.34893332980951175 -2.2586666438567558,0.34893332980951175 c-1.1893333213224473,0 -2.145333311667957,-0.406266662563845 -2.753333305527863,-1.0729333224979523 c-0.6946666596513398,-0.781199992110787 -0.9853333233826105,-2.028133312851541 -0.9853333233826105,-3.680133296168259 v-7.647999922764079 h-2.17333331138519 v-1.940133313740239 h2.17333331138519 v-2.609333306982096 l2.491999974833693,-0.7521333257376599 " stroke-width="0"/><path id="path78" style="fill:#af783c;fill-opacity:1;fill-rule:nonzero;stroke:none" d="m482.6373284592566,518.0664004828618 c0,3.070933302320472 1.7386666491081517,5.388133278919442 4.229333290621977,5.388133278919442 c2.43466664207936,0 4.258666623659077,-2.2881333102258434 4.258666623659077,-5.4453332783417885 c0,-2.3745333093533034 -1.186666654682711,-5.358399945886381 -4.199999957584876,-5.358399945886381 c-2.983999969865064,0 -4.2879999566961775,2.7813333052450955 -4.2879999566961775,5.415599945308727 zm11.095999887943282,-0.14519999853364857 c0,5.1879999476072225 -3.6226666300819392,7.44786659145186 -6.981333262829971,7.44786659145186 c-3.766666628627706,0 -6.7213332654556694,-2.781199971913109 -6.7213332654556694,-7.215599927130817 c0,-4.664133286231001 3.0986666353737307,-7.417733258422839 6.9533332631127385,-7.417733258422839 c4.02533329268214,0 6.749333265172901,2.9281333037625856 6.749333265172901,7.185466594101795 " stroke-width="0"/><path id="path80" style="fill:#af783c;fill-opacity:1;fill-rule:nonzero;stroke:none" d="m496.95199498136174,515.4024005097651 c0,-1.6530666499726123 -0.027999999717232507,-3.07186663564438 -0.11599999882853468,-4.374533289155625 H499.0666616266727 l0.1173333321484029,2.7813333052450955 h0.08666666579143396 c0.6373333268970066,-1.8822666476579586 2.2013333111024225,-3.073466635628221 3.910666627173473,-3.073466635628221 c0.26133333069417003,0 0.46399999531413866,0.032266666340810796 0.695999992971208,0.06039999939003012 v2.4035999757264306 c-0.26133333069417003,-0.05719999942234641 -0.5213333280684719,-0.05719999942234641 -0.8706666578739441,-0.05719999942234641 c-1.794666648542617,0 -3.06933330233663,1.3333333198682147 -3.417333298822234,3.2453333005592344 c-0.05866666607420145,0.3451999965138807 -0.08799999911130219,0.781199992110787 -0.08799999911130219,1.1869333213466846 V525.0493337456757 h-2.5493333075880265 v-9.646933235910506 " stroke-width="0"/><path id="path82" style="fill:#af783c;fill-opacity:1;fill-rule:nonzero;stroke:none" d="m512.8333281543121,525.0493337456757 v-12.081333211325893 h-1.9413333137281206 v-1.940133313740239 h1.9413333137281206 v-0.6666666599341073 c0,-1.970799980097208 0.4626666619942705,-3.765066628643864 1.621333316959749,-4.895733283892111 c0.957333323665378,-0.9266666573084091 2.231999977459391,-1.3042666534950875 3.41999996546197,-1.3042666534950875 c0.9266666573084091,0 1.6799999830339503,0.20266666461996863 2.17333331138519,0.4051999959079504 l-0.34799999648560404,1.9693333134453528 c-0.3773333295227047,-0.17186666493101288 -0.8693333245540759,-0.31719999679664823 -1.6226666502796172,-0.31719999679664823 c-2.17333331138519,0 -2.723999972490762,1.882799980985906 -2.723999972490762,4.054666625719241 v0.7546666590454094 h3.3906666324248698 V512.9680005343498 h-3.3906666324248698 v12.081333211325893 h-2.519999974550925 " stroke-width="0"/><path id="path84" style="fill:#af783c;fill-opacity:1;fill-rule:nonzero;stroke:none" d="m522.2506613925412,518.0664004828618 c0,3.070933302320472 1.7386666491081517,5.388133278919442 4.230666623941845,5.388133278919442 c2.431999975439623,0 4.257333290339209,-2.2881333102258434 4.257333290339209,-5.4453332783417885 c0,-2.3745333093533034 -1.186666654682711,-5.358399945886381 -4.199999957584876,-5.358399945886381 c-2.983999969865064,0 -4.2879999566961775,2.7813333052450955 -4.2879999566961775,5.415599945308727 zm11.095999887943282,-0.14519999853364857 c0,5.1879999476072225 -3.621333296762071,7.44786659145186 -6.98266659614984,7.44786659145186 c-3.765333295307838,0 -6.7213332654556694,-2.781199971913109 -6.7213332654556694,-7.215599927130817 c0,-4.664133286231001 3.099999968693599,-7.417733258422839 6.9533332631127385,-7.417733258422839 c4.026666626002008,0 6.750666598492771,2.9281333037625856 6.750666598492771,7.185466594101795 " stroke-width="0"/><path id="path86" style="fill:#af783c;fill-opacity:1;fill-rule:nonzero;stroke:none" d="m536.5653279146463,515.4024005097651 c0,-1.6530666499726123 -0.027999999717232507,-3.07186663564438 -0.11599999882853468,-4.374533289155625 h2.231999977459391 l0.11466666550866647,2.7813333052450955 h0.08799999911130219 c0.6373333268970066,-1.8822666476579586 2.2013333111024225,-3.073466635628221 3.910666627173473,-3.073466635628221 c0.26133333069417003,0 0.46399999531413866,0.032266666340810796 0.695999992971208,0.06039999939003012 v2.4035999757264306 c-0.26133333069417003,-0.05719999942234641 -0.5226666613883401,-0.05719999942234641 -0.8693333245540759,-0.05719999942234641 c-1.7959999818624852,0 -3.0706666356564982,1.3333333198682147 -3.418666632142102,3.2453333005592344 c-0.057333332754333236,0.3451999965138807 -0.08799999911130219,0.781199992110787 -0.08799999911130219,1.1869333213466846 V525.0493337456757 h-2.5493333075880265 v-9.646933235910506 " stroke-width="0"/><path id="path88" style="fill:#af783c;fill-opacity:1;fill-rule:nonzero;stroke:none" d="m546.1586611510982,514.8226671822864 c0,-1.4775999850779555 -0.057333332754333236,-2.6358666400474733 -0.11599999882853468,-3.7947999616769255 h2.230666644139523 l0.11599999882853468,2.2895999768776982 h0.08666666579143396 c0.782666658762642,-1.3333333198682147 2.0853333122738875,-2.5817333072608237 4.431999955241945,-2.5817333072608237 c1.8839999809737873,0 3.331999966350668,1.1587999882974653 3.939999960210574,2.8135999715859064 h0.05866666607420145 c0.43466666227703793,-0.8135999917835846 1.0146666564197113,-1.3906666526225477 1.5933333172425164,-1.8255999815635595 c0.8399999915169751,-0.638533326884888 1.7386666491081517,-0.9879999900223471 3.0706666356564982,-0.9879999900223471 c1.8839999809737873,0 4.635999953181782,1.218799987691535 4.635999953181782,6.086933271862374 v8.226666583586884 h-2.4906666415138248 v-7.909466586790235 c0,-2.7238666391587754 -1.0146666564197113,-4.317199956401292 -3.042666635939266,-4.317199956401292 c-1.4773333184139819,0 -2.578666640625127,1.0718666558420578 -3.042666635939266,2.289066643549751 c-0.11599999882853468,0.37759999618667833 -0.2013333313001004,0.8119999917997427 -0.2013333313001004,1.276133320445868 V525.0493337456757 h-2.491999974833693 v-8.401066581825647 c0,-2.232266644123365 -0.9853333233826105,-3.825599961365881 -2.926666637110731,-3.825599961365881 c-1.565333317525284,0 -2.751999972207995,1.276133320445868 -3.157333301447932,2.549466640920013 c-0.1453333318656354,0.34906666314149865 -0.20266666461996863,0.8119999917997427 -0.20266666461996863,1.246399987412807 V525.0493337456757 h-2.491999974833693 v-10.226666563389205 " stroke-width="0"/><path id="path90" style="fill:#af783c;fill-opacity:1;fill-rule:nonzero;stroke:none" d="m577.7146608324192,517.892000484623 c-2.7813333052450955,-0.05626666609843866 -5.938666606693028,0.4358666622649194 -5.938666606693028,3.159866634755682 c0,1.678666649714082 1.099999988891277,2.432266642103597 2.37466664268529,2.432266642103597 c1.8533333146168183,0 3.0413333026193974,-1.1587999882974653 3.4479999651792026,-2.346799976300044 c0.08666666579143396,-0.28906666374742895 0.11599999882853468,-0.5786666608228052 0.11599999882853468,-0.8094666584919931 zm2.4613333084767244,3.797333294984675 c0,1.2161333210517986 0.05866666607420145,2.4042666423863643 0.20399999793983684,3.3599999660679005 h-2.2893333102137245 l-0.20266666461996863,-1.7666666488253844 h-0.08666666579143396 c-0.782666658762642,1.099999988891277 -2.2893333102137245,2.0863999789297822 -4.2879999566961775,2.0863999789297822 c-2.839999971319297,0 -4.2879999566961775,-1.9999999798023218 -4.2879999566961775,-4.029199959309758 c0,-3.3879999657851334 3.013333302902165,-5.241066613737978 8.43066658152672,-5.212933280688759 v-0.29119999705921806 c0,-1.1275999886125492 -0.3186666634485033,-3.2453333005592344 -3.1866666344850327,-3.2145333008702788 c-1.3319999865483463,0 -2.6933333061337934,0.37599999620283653 -3.6799999628362725,1.0426666561369438 l-0.5786666608228052,-1.709333316071051 c1.1586666549654785,-0.7239999926884405 2.8679999710365296,-1.218799987691535 4.634666619861914,-1.218799987691535 c4.2879999566961775,0 5.330666612833121,2.9281333037625856 5.330666612833121,5.709333275675695 V521.6893337796078 " stroke-width="0"/><path id="path92" style="fill:#af783c;fill-opacity:1;fill-rule:nonzero;stroke:none" d="m587.2506607361167,507.66640058788977 v3.3614666327197558 h3.6493332964793033 V512.9680005343498 h-3.6493332964793033 v7.562533256960527 c0,1.7374666491202704 0.4919999950313712,2.721333305851026 1.9119999806910197,2.721333305851026 c0.6946666596513398,0 1.1013333222111452,-0.057333332754333236 1.4773333184139819,-0.17186666493101288 l0.11599999882853468,1.940133313740239 c-0.4919999950313712,0.17439999823876248 -1.2746666537940132,0.34893332980951175 -2.2586666438567558,0.34893332980951175 c-1.1893333213224473,0 -2.145333311667957,-0.406266662563845 -2.753333305527863,-1.0729333224979523 c-0.6946666596513398,-0.781199992110787 -0.9853333233826105,-2.028133312851541 -0.9853333233826105,-3.680133296168259 v-7.647999922764079 h-2.17333331138519 v-1.940133313740239 h2.17333331138519 v-2.609333306982096 l2.491999974833693,-0.7521333257376599 " stroke-width="0"/><path id="path94" style="fill:#af783c;fill-opacity:1;fill-rule:nonzero;stroke:none" d="m600.1733272722795,525.0493337456757 v-12.081333211325893 h-1.9399999804082524 v-1.940133313740239 h1.9399999804082524 v-0.6666666599341073 c0,-1.970799980097208 0.46399999531413866,-3.765066628643864 1.6226666502796172,-4.895733283892111 c0.957333323665378,-0.9266666573084091 2.231999977459391,-1.3042666534950875 3.41999996546197,-1.3042666534950875 c0.9266666573084091,0 1.678666649714082,0.20266666461996863 2.17333331138519,0.4051999959079504 l-0.34799999648560404,1.9693333134453528 c-0.3773333295227047,-0.17186666493101288 -0.8706666578739441,-0.31719999679664823 -1.6226666502796172,-0.31719999679664823 c-2.17333331138519,0 -2.723999972490762,1.882799980985906 -2.723999972490762,4.054666625719241 v0.7546666590454094 h3.3906666324248698 V512.9680005343498 h-3.3906666324248698 v12.081333211325893 h-2.5213333078707936 " stroke-width="0"/><path id="path96" style="fill:#af783c;fill-opacity:1;fill-rule:nonzero;stroke:none" d="m609.5933271771484,518.0664004828618 c0,3.070933302320472 1.7386666491081517,5.388133278919442 4.229333290621977,5.388133278919442 c2.43466664207936,0 4.258666623659077,-2.2881333102258434 4.258666623659077,-5.4453332783417885 c0,-2.3745333093533034 -1.187999988002579,-5.358399945886381 -4.199999957584876,-5.358399945886381 c-2.9853333031849325,0 -4.2879999566961775,2.7813333052450955 -4.2879999566961775,5.415599945308727 zm11.095999887943282,-0.14519999853364857 c0,5.1879999476072225 -3.6226666300819392,7.44786659145186 -6.981333262829971,7.44786659145186 c-3.766666628627706,0 -6.7213332654556694,-2.781199971913109 -6.7213332654556694,-7.215599927130817 c0,-4.664133286231001 3.0986666353737307,-7.417733258422839 6.9533332631127385,-7.417733258422839 c4.02533329268214,0 6.749333265172901,2.9281333037625856 6.749333265172901,7.185466594101795 " stroke-width="0"/><path id="path98" style="fill:#af783c;fill-opacity:1;fill-rule:nonzero;stroke:none" d="m623.9079936992536,515.4024005097651 c0,-1.6530666499726123 -0.027999999717232507,-3.07186663564438 -0.11599999882853468,-4.374533289155625 h2.230666644139523 l0.1173333321484029,2.7813333052450955 h0.08533333247156574 c0.6386666602168748,-1.8822666476579586 2.2026666444222904,-3.073466635628221 3.9119999604933415,-3.073466635628221 c0.25999999737430185,0 0.46399999531413866,0.032266666340810796 0.695999992971208,0.06039999939003012 v2.4035999757264306 c-0.26133333069417003,-0.05719999942234641 -0.5213333280684719,-0.05719999942234641 -0.8706666578739441,-0.05719999942234641 c-1.7959999818624852,0 -3.0706666356564982,1.3333333198682147 -3.417333298822234,3.2453333005592344 c-0.05866666607420145,0.3451999965138807 -0.08799999911130219,0.781199992110787 -0.08799999911130219,1.1869333213466846 V525.0493337456757 h-2.5493333075880265 v-9.646933235910506 " stroke-width="0"/><path id="path100" style="fill:#af783c;fill-opacity:1;fill-rule:nonzero;stroke:none" d="m639.7879935388839,525.0493337456757 v-12.081333211325893 h-1.9399999804082524 v-1.940133313740239 h1.9399999804082524 v-0.6666666599341073 c0,-1.970799980097208 0.46399999531413866,-3.765066628643864 1.6226666502796172,-4.895733283892111 c0.957333323665378,-0.9266666573084091 2.231999977459391,-1.3042666534950875 3.41999996546197,-1.3042666534950875 c0.9266666573084091,0 1.678666649714082,0.20266666461996863 2.1719999780653216,0.4051999959079504 l-0.3466666631657358,1.9693333134453528 c-0.37866666284257294,-0.17186666493101288 -0.8706666578739441,-0.31719999679664823 -1.6226666502796172,-0.31719999679664823 c-2.17333331138519,0 -2.723999972490762,1.882799980985906 -2.723999972490762,4.054666625719241 v0.7546666590454094 h3.3906666324248698 V512.9680005343498 h-3.3906666324248698 v12.081333211325893 h-2.5213333078707936 " stroke-width="0"/><path id="path102" style="fill:#af783c;fill-opacity:1;fill-rule:nonzero;stroke:none" d="m647.9893267893933,515.4024005097651 c0,-1.6530666499726123 -0.029333333037100725,-3.07186663564438 -0.11599999882853468,-4.374533289155625 h2.230666644139523 l0.1173333321484029,2.7813333052450955 h0.08533333247156574 c0.6373333268970066,-1.8822666476579586 2.2013333111024225,-3.073466635628221 3.9119999604933415,-3.073466635628221 c0.25999999737430185,0 0.4626666619942705,0.032266666340810796 0.6946666596513398,0.06039999939003012 v2.4035999757264306 c-0.25999999737430185,-0.05719999942234641 -0.5213333280684719,-0.05719999942234641 -0.8693333245540759,-0.05719999942234641 c-1.7959999818624852,0 -3.0706666356564982,1.3333333198682147 -3.418666632142102,3.2453333005592344 c-0.05866666607420145,0.3451999965138807 -0.08666666579143396,0.781199992110787 -0.08666666579143396,1.1869333213466846 V525.0493337456757 h-2.5493333075880265 v-9.646933235910506 " stroke-width="0"/><path id="path104" style="fill:#af783c;fill-opacity:1;fill-rule:nonzero;stroke:none" d="m666.0706599401261,516.6758671635713 c0.029333333037100725,-1.5931999839105295 -0.6666666599341073,-4.11466662511331 -3.534666630970637,-4.11466662511331 c-2.6066666403423597,0 -3.7079999625535045,2.3469333096320315 -3.910666627173473,4.11466662511331 zm-7.474666591181212,1.8265333148874672 c0.05866666607420145,3.4469332985233083 2.231999977459391,4.866666617518983 4.80933328476465,4.866666617518983 c1.8253333148995856,0 2.955999970147832,-0.31719999679664823 3.882666627456241,-0.7239999926884405 l0.46399999531413866,1.8255999815635595 c-0.8986666575911767,0.40413332925205586 -2.4639999751164607,0.898399990927203 -4.694666619255984,0.898399990927203 c-4.31599995641341,0 -6.893333263718669,-2.8693333043563976 -6.893333263718669,-7.098399928314401 c0,-4.22919995728999 2.4906666415138248,-7.5349332572392544 6.574666600270167,-7.5349332572392544 c4.606666620144681,0 5.794666608147261,3.9999999596046436 5.794666608147261,6.579199933557718 c0,0.5207999947405246 -0.029333333037100725,0.898399990927203 -0.08666666579143396,1.187466654674632 h-9.85066656718637 " stroke-width="0"/><path id="path106" style="fill:#af783c;fill-opacity:1;fill-rule:nonzero;stroke:none" d="m680.5893264601712,516.6758671635713 c0.027999999717232507,-1.5931999839105295 -0.6666666599341073,-4.11466662511331 -3.534666630970637,-4.11466662511331 c-2.6079999736622277,0 -3.709333295873373,2.3469333096320315 -3.910666627173473,4.11466662511331 zm-7.475999924501079,1.8265333148874672 c0.05866666607420145,3.4469332985233083 2.231999977459391,4.866666617518983 4.810666618084518,4.866666617518983 c1.8253333148995856,0 2.955999970147832,-0.31719999679664823 3.882666627456241,-0.7239999926884405 l0.46399999531413866,1.8255999815635595 c-0.8986666575911767,0.40413332925205586 -2.4639999751164607,0.898399990927203 -4.694666619255984,0.898399990927203 c-4.31599995641341,0 -6.894666597038538,-2.8693333043563976 -6.894666597038538,-7.098399928314401 c0,-4.22919995728999 2.4906666415138248,-7.5349332572392544 6.575999933590034,-7.5349332572392544 c4.606666620144681,0 5.794666608147261,3.9999999596046436 5.794666608147261,6.579199933557718 c0,0.5207999947405246 -0.029333333037100725,0.898399990927203 -0.08666666579143396,1.187466654674632 h-9.851999900506238 " stroke-width="0"/><path id="path108" style="fill:#af783c;fill-opacity:1;fill-rule:nonzero;stroke:none" d="m685.2573264130299,523.5440004275445 c0,-1.0442666561207856 0.7239999926884405,-1.8254666482315727 1.7386666491081517,-1.8254666482315727 c1.013333323099843,0 1.709333316071051,0.7521333257376599 1.709333316071051,1.8254666482315727 c0,1.0411999894850887 -0.695999992971208,1.8250666482356122 -1.7679999821452526,1.8250666482356122 c-0.9853333233826105,0 -1.6799999830339503,-0.7838666587505234 -1.6799999830339503,-1.8250666482356122 " stroke-width="0"/><path id="path110" style="fill:#2d68af;fill-opacity:1;fill-rule:nonzero;stroke:none" d="m148.4999985003224,539.2545336022197 h4.402666622204845 v8.111866584746231 h0.05866666607420145 c0.46399999531413866,-0.638533326884888 1.0426666561369438,-1.130666655248246 1.7386666491081517,-1.4759999850941137 c0.665333326614239,-0.34893332980951175 1.4773333184139819,-0.5530666610813354 2.287999976893856,-0.5530666610813354 c2.810666638282196,0 4.954666616630285,1.9426666470479887 4.954666616630285,6.229066603760326 V559.8253067278121 h-4.4039999555247125 v-7.794773254615172 c0,-1.8546666479366865 -0.6373333268970066,-3.128133301742818 -2.287999976893856,-3.128133301742818 c-1.1599999882853467,0 -1.8839999809737873,0.7535999923895149 -2.2026666444222904,1.563066650881508 c-0.11599999882853468,0.259866664042315 -0.1453333318656354,0.638533326884888 -0.1453333318656354,0.9557333236815362 V559.8253067278121 h-4.402666622204845 V539.2545336022197 " stroke-width="0"/><path id="path112" style="fill:#2d68af;fill-opacity:1;fill-rule:nonzero;stroke:none" d="M173.13066491824793,541.8330669095128 V545.6586668708786 h3.157333301447932 v3.2437333005753923 h-3.157333301447932 V554.030520119666 c0,1.70833331608115 0.43466666227703793,2.4895866415247316 1.7386666491081517,2.4895866415247316 c0.6079999938599059,0 0.8973333242713085,-0.02813333304921933 1.3026666535112457,-0.11458666550947437 l0.029333333037100725,3.330213299702045 c-0.5506666611055726,0.20415999793822104 -1.6226666502796172,0.37759999618667833 -2.8386666379994288,0.37759999618667833 c-1.4199999856596486,0 -2.6079999736622277,-0.49218666169615277 -3.331999966350668,-1.2161466543849972 c-0.8106666584798745,-0.8401066581825646 -1.21733332103968,-2.202599977756297 -1.21733332103968,-4.199999957584876 v-5.794786608146049 h-1.882666647653919 v-3.2437333005753923 h1.882666647653919 v-2.63853330668721 l4.317333289733279,-1.1870666546786715 " stroke-width="0"/><path id="path114" style="fill:#2d68af;fill-opacity:1;fill-rule:nonzero;stroke:none" d="M186.6639981149103,541.8330669095128 V545.6586668708786 h3.157333301447932 v3.2437333005753923 h-3.157333301447932 V554.030520119666 c0,1.70833331608115 0.43466666227703793,2.4895866415247316 1.7373333157882835,2.4895866415247316 c0.6093333271797741,0 0.8986666575911767,-0.02813333304921933 1.3039999868311138,-0.11458666550947437 l0.029333333037100725,3.330213299702045 c-0.5506666611055726,0.20415999793822104 -1.6226666502796172,0.37759999618667833 -2.839999971319297,0.37759999618667833 c-1.4186666523397804,0 -2.6066666403423597,-0.49218666169615277 -3.3306666330308,-1.2161466543849972 c-0.8119999917997427,-0.8401066581825646 -1.21733332103968,-2.202599977756297 -1.21733332103968,-4.199999957584876 v-5.794786608146049 h-1.882666647653919 v-3.2437333005753923 h1.882666647653919 v-2.63853330668721 l4.317333289733279,-1.1870666546786715 " stroke-width="0"/><path id="path116" style="fill:#2d68af;fill-opacity:1;fill-rule:nonzero;stroke:none" d="m199.67466465018433,553.7388534559448 c0,0.34895999647590914 0.029333333037100725,0.6385466602180867 0.08666666579143396,0.9275999906323169 c0.2906666637312708,1.1895866546532226 1.3039999868311138,2.0854266456062787 2.578666640625127,2.0854266456062787 c1.9119999806910197,0 3.042666635939266,-1.590626650603184 3.042666635939266,-3.9973999596309007 c0,-2.259946643843829 -1.0146666564197113,-3.9692799599148803 -2.9853333031849325,-3.9692799599148803 c-1.2453333207569124,0 -2.3453333096481894,0.9281333239602642 -2.63599997337946,2.232266644123365 c-0.057333332754333236,0.23186666432508252 -0.08666666579143396,0.5213333280684719 -0.08666666579143396,0.7813333254427738 zm-4.402666622204845,-3.3307199663635947 c0,-1.8535999812807917 -0.05866666607420145,-3.418799965474089 -0.11599999882853468,-4.749466618702567 h3.8239999613820395 l0.20266666461996863,1.9677333134615111 h0.057333332754333236 c1.0426666561369438,-1.4755999850981532 2.6653333064165605,-2.289066643549751 4.722666618973216,-2.289066643549751 c3.099999968693599,0 5.8813332739386945,2.695733306109556 5.8813332739386945,7.21454659380812 c0,5.1588532812349035 -3.274666633596335,7.590613256676951 -6.431999935044267,7.590613256676951 c-1.709333316071051,0 -3.0413333026193974,-0.6958266596396252 -3.6799999628362725,-1.6223866502824447 h-0.057333332754333236 V565.5586453365786 h-4.402666622204845 V550.4081334895812 " stroke-width="0"/><path id="path118" style="fill:#2d68af;fill-opacity:1;fill-rule:nonzero;stroke:none" d="m215.2093311599689,557.506560084562 c0,-1.564066650871409 1.0706666558541762,-2.6666666397364294 2.5773333073052584,-2.6666666397364294 c1.535999984488183,0 2.5493333075880265,1.0734399891595023 2.578666640625127,2.6666666397364294 c0,1.505213318132426 -1.0146666564197113,2.6359333067134667 -2.6066666403423597,2.6359333067134667 c-1.5066666514510825,0 -2.5493333075880265,-1.1307199885810406 -2.5493333075880265,-2.6359333067134667 zm0,-9.358826572153381 c0,-1.5625333175535605 1.0706666558541762,-2.6635999731007325 2.5773333073052584,-2.6635999731007325 c1.535999984488183,0 2.5493333075880265,1.0703999891902027 2.578666640625127,2.6635999731007325 c0,1.5082666514349243 -1.0146666564197113,2.637466640031315 -2.6066666403423597,2.637466640031315 c-1.5066666514510825,0 -2.5493333075880265,-1.1291999885963908 -2.5493333075880265,-2.637466640031315 " stroke-width="0"/><path id="path120" style="fill:#2d68af;fill-opacity:1;fill-rule:nonzero;stroke:none" d="m224.6266643981981,560.9544800497421 l6.201333270707066,-21.005146454539073 h2.925333303790863 l-6.199999937387198,21.005146454539073 h-2.926666637110731 " stroke-width="0"/><path id="path122" style="fill:#2d68af;fill-opacity:1;fill-rule:nonzero;stroke:none" d="m237.11599760540366,560.9544800497421 l6.201333270707066,-21.005146454539073 h2.925333303790863 l-6.199999937387198,21.005146454539073 h-2.926666637110731 " stroke-width="0"/><path id="path124" style="fill:#2d68af;fill-opacity:1;fill-rule:nonzero;stroke:none" d="m253.95199743537964,545.6586668708786 l1.1586666549654785,5.822399941200519 c0.26133333069417003,1.4484133187060402 0.5519999944254408,3.013519969566947 0.782666658762642,4.634866619859894 h0.08799999911130219 c0.25999999737430185,-1.6213466502929477 0.6946666596513398,-3.216146634187319 1.013333323099843,-4.606733286810675 l1.505333318131214,-5.850533274249738 h3.4773332982163034 l1.4199999856596486,5.64786660962977 c0.40533332923993726,1.6229466502767895 0.7813333254427738,3.1880533011376957 1.0426666561369438,4.809399951430644 h0.05866666607420145 c0.20266666461996863,-1.5932266505769268 0.4919999950313712,-3.216146634187319 0.838666658197107,-4.837533284479863 l1.187999988002579,-5.619733276580551 h4.317333289733279 L266.4973306420197,559.8253067278121 h-4.113333291793442 l-1.3333333198682147,-4.956239949947729 c-0.3773333295227047,-1.3906266526229518 -0.6373333268970066,-2.6635999731007325 -0.9279999906282773,-4.431733288577972 h-0.057333332754333236 c-0.26133333069417003,1.7681333154772392 -0.5506666611055726,3.1015199686782484 -0.8986666575911767,4.402559955539255 l-1.4186666523397804,4.985413282986446 h-4.142666624830543 L249.46133081406347,545.6586668708786 h4.490666621316147 " stroke-width="0"/><path id="path126" style="fill:#2d68af;fill-opacity:1;fill-rule:nonzero;stroke:none" d="m279.3946638451049,545.6586668708786 l1.1599999882853467,5.822399941200519 c0.25999999737430185,1.4484133187060402 0.5506666611055726,3.013519969566947 0.7813333254427738,4.634866619859894 h0.08799999911130219 c0.25999999737430185,-1.6213466502929477 0.6946666596513398,-3.216146634187319 1.013333323099843,-4.606733286810675 l1.5066666514510825,-5.850533274249738 h3.4759999648964355 l1.4199999856596486,5.64786660962977 c0.40533332923993726,1.6229466502767895 0.7813333254427738,3.1880533011376957 1.0426666561369438,4.809399951430644 h0.05866666607420145 c0.20266666461996863,-1.5932266505769268 0.4919999950313712,-3.216146634187319 0.838666658197107,-4.837533284479863 l1.187999988002579,-5.619733276580551 h4.317333289733279 L291.93999705174497,559.8253067278121 h-4.113333291793442 l-1.3333333198682147,-4.956239949947729 c-0.3773333295227047,-1.3906266526229518 -0.6373333268970066,-2.6635999731007325 -0.9279999906282773,-4.431733288577972 h-0.057333332754333236 c-0.26133333069417003,1.7681333154772392 -0.5506666611055726,3.1015199686782484 -0.8973333242713085,4.402559955539255 l-1.4199999856596486,4.985413282986446 h-4.142666624830543 L274.9039972237888,545.6586668708786 h4.490666621316147 " stroke-width="0"/><path id="path128" style="fill:#2d68af;fill-opacity:1;fill-rule:nonzero;stroke:none" d="m304.8373302548302,545.6586668708786 l1.1599999882853467,5.822399941200519 c0.26133333069417003,1.4484133187060402 0.5506666611055726,3.013519969566947 0.7813333254427738,4.634866619859894 h0.08799999911130219 c0.25999999737430185,-1.6213466502929477 0.6946666596513398,-3.216146634187319 1.0146666564197113,-4.606733286810675 l1.5066666514510825,-5.850533274249738 h3.4759999648964355 l1.4186666523397804,5.64786660962977 c0.40666666255980544,1.6229466502767895 0.782666658762642,3.1880533011376957 1.043999989456812,4.809399951430644 h0.05866666607420145 c0.2013333313001004,-1.5932266505769268 0.4919999950313712,-3.216146634187319 0.838666658197107,-4.837533284479863 l1.187999988002579,-5.619733276580551 h4.31599995641341 L317.38399679479005,559.8253067278121 h-4.11466662511331 l-1.3319999865483463,-4.956239949947729 c-0.37866666284257294,-1.3906266526229518 -0.6386666602168748,-2.6635999731007325 -0.9279999906282773,-4.431733288577972 h-0.05866666607420145 c-0.25999999737430185,1.7681333154772392 -0.5506666611055726,3.1015199686782484 -0.8959999909514401,4.402559955539255 l-1.4213333189795168,4.985413282986446 h-4.141333291510675 L300.3479969668339,545.6586668708786 h4.489333287996279 " stroke-width="0"/><path id="path130" style="fill:#2d68af;fill-opacity:1;fill-rule:nonzero;stroke:none" d="m324.9799967180793,557.4784400848459 c0,-1.5932266505769268 1.0719999891740444,-2.695839972775146 2.6079999736622277,-2.695839972775146 c1.505333318131214,0 2.5493333075880265,1.0734399891595023 2.578666640625127,2.695839972775146 c0,1.5333333178484467 -1.043999989456812,2.6640533064294876 -2.6373333066993285,2.6640533064294876 c-1.4773333184139819,0 -2.5493333075880265,-1.1307199885810406 -2.5493333075880265,-2.6640533064294876 " stroke-width="0"/><path id="path132" style="fill:#2d68af;fill-opacity:1;fill-rule:nonzero;stroke:none" d="m335.7306632761767,539.2545336022197 h4.4039999555247125 V559.8253067278121 h-4.4039999555247125 V539.2545336022197 " stroke-width="0"/><path id="path134" style="fill:#2d68af;fill-opacity:1;fill-rule:nonzero;stroke:none" d="m350.33466312869325,552.7253067995138 c0,2.4359466420664333 1.0146666564197113,4.258853290323859 2.8973333040736304,4.258853290323859 c1.7386666491081517,0 2.810666638282196,-1.70833331608115 2.810666638282196,-4.286973290039879 c0,-2.085453312272676 -0.8119999917997427,-4.2291866239567915 -2.810666638282196,-4.2291866239567915 c-2.0853333122738875,0 -2.8973333040736304,2.171866644733335 -2.8973333040736304,4.257306623672812 zm10.255999896426307,-0.14530666519923804 c0,5.188026614273621 -3.678666629516404,7.56249325696093 -7.474666591181212,7.56249325696093 c-4.142666624830543,0 -7.329333259315575,-2.7239466391579676 -7.329333259315575,-7.299999926278475 c0,-4.606759953477072 3.013333302902165,-7.533293257255816 7.590666590009746,-7.533293257255816 c4.317333289733279,0 7.213333260487041,2.9838666365330777 7.213333260487041,7.2707999265733605 " stroke-width="0"/><path id="path136" style="fill:#2d68af;fill-opacity:1;fill-rule:nonzero;stroke:none" d="m375.3133295431044,551.4212001460171 c0,-0.25999999737430185 -0.029333333037100725,-0.5490666611217309 -0.08799999911130219,-0.8094666584919931 c-0.31733333012863507,-1.1598666549533598 -1.1586666549654785,-1.9410666470641467 -2.37466664268529,-1.9410666470641467 c-1.6226666502796172,0 -2.8973333040736304,1.4478666520448942 -2.8973333040736304,4.026519959336822 c0,2.1145866453117965 1.043999989456812,3.765626628638209 2.8693333043563976,3.765626628638209 c1.1586666549654785,0 2.0559999792367867,-0.7520799924048651 2.3453333096481894,-1.7656266488358872 c0.11599999882853468,-0.34947999647065775 0.1453333318656354,-0.8119733251333453 0.1453333318656354,-1.1906266546427196 zm4.4039999555247125,6.3468266025710856 c0,2.7239466391579676 -0.5506666611055726,4.953119949979238 -2.17333331138519,6.371866602318211 C376.0079962027557,565.4732293374412 373.8933295574447,565.88 371.80799624517084,565.88 c-1.8839999809737873,0 -3.8239999613820395,-0.377603996186638 -5.098666615176053,-1.0734373224928624 l0.8679999912342077,-3.359895966068951 c0.8986666575911767,0.5213599947348693 2.4333333087594915,1.0708266558525605 4.11466662511331,1.0708266558525605 c2.0853333122738875,0 3.6799999628362725,-1.0989466555685812 3.6799999628362725,-3.7374932955889895 v-0.8973999909373018 h-0.05866666607420145 c-0.8399999915169751,1.15885332163026 -2.2026666444222904,1.8255199815643672 -3.8239999613820395,1.8255199815643672 c-3.505333297933536,0 -5.997333272767229,-2.8390533046621904 -5.997333272767229,-6.896346597021571 c0,-4.576039953787308 2.926666637110731,-7.474439924516834 6.431999935044267,-7.474439924516834 c1.9399999804082524,0 3.157333301447932,0.8410666581728697 3.8813332941363727,2.029066646175449 h0.05866666607420145 l0.14399999854576717,-1.7077333160872092 h3.825333294701908 c-0.057333332754333236,0.9265333239764223 -0.11599999882853468,2.1145333119790015 -0.11599999882853468,4.22919995728999 V557.7680267485882 " stroke-width="0"/><path id="path138" style="fill:#2d68af;fill-opacity:1;fill-rule:nonzero;stroke:none" d="m389.8893293959037,552.7253067995138 c0,2.4359466420664333 1.0146666564197113,4.258853290323859 2.8986666373934984,4.258853290323859 c1.7373333157882835,0 2.810666638282196,-1.70833331608115 2.810666638282196,-4.286973290039879 c0,-2.085453312272676 -0.8119999917997427,-4.2291866239567915 -2.810666638282196,-4.2291866239567915 c-2.0853333122738875,0 -2.8986666373934984,2.171866644733335 -2.8986666373934984,4.257306623672812 zm10.257333229746175,-0.14530666519923804 c0,5.188026614273621 -3.6799999628362725,7.56249325696093 -7.475999924501079,7.56249325696093 c-4.141333291510675,0 -7.329333259315575,-2.7239466391579676 -7.329333259315575,-7.299999926278475 c0,-4.606759953477072 3.013333302902165,-7.533293257255816 7.591999923329613,-7.533293257255816 c4.31599995641341,0 7.213333260487041,2.9838666365330777 7.213333260487041,7.2707999265733605 " stroke-width="0"/><path id="path140" style="fill:#2d68af;fill-opacity:1;fill-rule:nonzero;stroke:none" d="m414.4346624813577,551.1321334822696 c0,-1.0709333225181499 -0.46399999531413866,-2.866666637716661 -2.4906666415138248,-2.866666637716661 c-1.8546666479366865,0 -2.609333306982096,1.7077333160872092 -2.723999972490762,2.866666637716661 zm-5.185333280967487,3.0129733029058006 c0.11466666550866647,1.8255199815643672 1.9399999804082524,2.69478663945245 3.9973332929649072,2.69478663945245 c1.5066666514510825,0 2.723999972490762,-0.20259999795397518 3.9119999604933415,-0.6093733271793701 l0.5786666608228052,2.9854133031841243 c-1.4493333186967494,0.6093733271793701 -3.2159999675221336,0.8973999909373018 -5.127999948213153,0.8973999909373018 c-4.80933328476465,0 -7.561333256972645,-2.7802133052564066 -7.561333256972645,-7.2135465938182195 c0,-3.593253297045646 2.2293333108196545,-7.5624532569613345 7.155999927732708,-7.5624532569613345 c4.575999953787712,0 6.315999936215732,3.5650666306636323 6.315999936215732,7.070799928593129 c0,0.7531199923943623 -0.08666666579143396,1.4197866523284697 -0.1453333318656354,1.7369733157919192 h-9.12533324117806 " stroke-width="0"/><path id="path142" style="fill:#2d68af;fill-opacity:1;fill-rule:nonzero;stroke:none" d="m428.4613290063713,553.7388534559448 c0,0.34895999647590914 0.030666666356968936,0.6385466602180867 0.08799999911130219,0.9275999906323169 c0.28799999709153434,1.1895866546532226 1.3026666535112457,2.0854266456062787 2.5773333073052584,2.0854266456062787 c1.913333314010888,0 3.0413333026193974,-1.590626650603184 3.0413333026193974,-3.9973999596309007 c0,-2.259946643843829 -1.0119999897799747,-3.9692799599148803 -2.982666636545196,-3.9692799599148803 c-1.2453333207569124,0 -2.347999976287926,0.9281333239602642 -2.63599997337946,2.232266644123365 c-0.057333332754333236,0.23186666432508252 -0.08799999911130219,0.5213333280684719 -0.08799999911130219,0.7813333254427738 zm-4.4039999555247125,-3.3307199663635947 c0,-1.8535999812807917 -0.057333332754333236,-3.418799965474089 -0.11466666550866647,-4.749466618702567 h3.8239999613820395 l0.20266666461996863,1.9677333134615111 h0.05866666607420145 c1.0413333228170756,-1.4755999850981532 2.6639999730966926,-2.289066643549751 4.721333285653348,-2.289066643549751 c3.099999968693599,0 5.8813332739386945,2.695733306109556 5.8813332739386945,7.21454659380812 c0,5.1588532812349035 -3.273333300276467,7.590613256676951 -6.430666601724399,7.590613256676951 c-1.709333316071051,0 -3.042666635939266,-0.6958266596396252 -3.6799999628362725,-1.6223866502824447 h-0.05866666607420145 V565.5586453365786 h-4.4039999555247125 V550.4081334895812 " stroke-width="0"/><path id="path144" style="fill:#2d68af;fill-opacity:1;fill-rule:nonzero;stroke:none" d="m444.25599551353014,555.9997867664454 c0.8106666584798745,0.49218666169615277 2.4906666415138248,1.0442799894539845 3.7959999616648066,1.0442799894539845 c1.3319999865483463,0 1.882666647653919,-0.4349066622746142 1.882666647653919,-1.15885332163026 c0,-0.755733325701304 -0.43466666227703793,-1.1026133221982188 -2.057333312556655,-1.6520933166491087 c-2.9546666368279637,-0.9864533233713 -4.08533329207621,-2.5796533072818297 -4.055999959039109,-4.259919956979753 c0,-2.6639999730966926 2.2599999771766237,-4.663999952899014 5.7653332751101605,-4.663999952899014 c1.6506666499968496,0 3.099999968693599,0.4067999958917923 3.969333293247675,0.8415999915008171 l-0.7533333257255412,3.0411999692874105 c-0.6373333268970066,-0.34946666313745905 -1.8839999809737873,-0.8119999917997427 -3.071999968976366,-0.8119999917997427 c-1.0706666558541762,0 -1.678666649714082,0.4343999956130643 -1.678666649714082,1.1291999885963908 c0,0.6962666596351818 0.5493333277857044,1.0453333227766801 2.287999976893856,1.6519999833167178 c2.694666639453662,0.9266666573084091 3.7946666283449386,2.3172399765985663 3.8239999613820395,4.374533289155625 c0,2.6666666397364294 -2.0559999792367867,4.606759953477072 -6.111999938275896,4.606759953477072 c-1.8546666479366865,0 -3.505333297933536,-0.43437332894666697 -4.578666620427449,-1.0130133231030747 l0.782666658762642,-3.129693301727064 " stroke-width="0"/><path id="path146" style="fill:#2d68af;fill-opacity:1;fill-rule:nonzero;stroke:none" d="m459.150662029778,557.4784400848459 c0,-1.5932266505769268 1.0719999891740444,-2.695839972775146 2.6079999736622277,-2.695839972775146 c1.5066666514510825,0 2.5493333075880265,1.0734399891595023 2.5773333073052584,2.695839972775146 c0,1.5333333178484467 -1.0426666561369438,2.6640533064294876 -2.63599997337946,2.6640533064294876 c-1.4773333184139819,0 -2.5493333075880265,-1.1307199885810406 -2.5493333075880265,-2.6640533064294876 " stroke-width="0"/><path id="path148" style="fill:#2d68af;fill-opacity:1;fill-rule:nonzero;stroke:none" d="m480.5346618138244,559.4466667316359 c-0.782666658762642,0.3786399961761756 -2.2586666438567558,0.6666666599341073 -3.939999960210574,0.6666666599341073 c-4.577333287107581,0 -7.503999924218312,-2.809373304961924 -7.503999924218312,-7.241146593539492 c0,-4.144319958147179 2.839999971319297,-7.534853257240062 8.111999918078219,-7.534853257240062 c1.1586666549654785,0 2.4333333087594915,0.20413333127182368 3.3599999660679005,0.5530666610813354 l-0.6946666596513398,3.2734666336084532 c-0.5213333280684719,-0.2317333309930957 -1.3039999868311138,-0.43599999559690616 -2.4626666417965923,-0.43599999559690616 c-2.317333309930957,0 -3.8239999613820395,1.6521333166487047 -3.7946666283449386,3.969319959914476 c0,2.5786399739587296 1.7373333157882835,3.9692666265816814 3.882666627456241,3.9692666265816814 c1.0426666561369438,0 1.8533333146168183,-0.17447999823795457 2.518666641231057,-0.4640533286469334 l0.5226666613883401,3.2442666339033397 " stroke-width="0"/><path id="path150" style="fill:#2d68af;fill-opacity:1;fill-rule:nonzero;stroke:none" d="m489.28799505875924,552.7253067995138 c0,2.4359466420664333 1.013333323099843,4.258853290323859 2.895999970753762,4.258853290323859 c1.7399999824280201,0 2.8119999716020647,-1.70833331608115 2.8119999716020647,-4.286973290039879 c0,-2.085453312272676 -0.8119999917997427,-4.2291866239567915 -2.8119999716020647,-4.2291866239567915 c-2.0853333122738875,0 -2.895999970753762,2.171866644733335 -2.895999970753762,4.257306623672812 zm10.255999896426307,-0.14530666519923804 c0,5.188026614273621 -3.6799999628362725,7.56249325696093 -7.474666591181212,7.56249325696093 c-4.142666624830543,0 -7.330666592635444,-2.7239466391579676 -7.330666592635444,-7.299999926278475 c0,-4.606759953477072 3.013333302902165,-7.533293257255816 7.591999923329613,-7.533293257255816 c4.31599995641341,0 7.213333260487041,2.9838666365330777 7.213333260487041,7.2707999265733605 " stroke-width="0"/><path id="path152" style="fill:#2d68af;fill-opacity:1;fill-rule:nonzero;stroke:none" d="m505.1693282317095,550.1758668252602 c0,-1.7677333154812787 -0.057333332754333236,-3.2437333005753923 -0.11466666550866647,-4.517199954381524 h3.7359999622707374 l0.1746666649027361,1.9103999807071779 h0.08799999911130219 c0.6079999938599059,-0.9265333239764223 1.882666647653919,-2.2598666438446373 4.28666662337631,-2.2598666438446373 c1.8546666479366865,0 3.273333300276467,0.9562666570094834 3.882666627456241,2.4347999754113467 h0.057333332754333236 c0.5506666611055726,-0.7546666590454094 1.1599999882853467,-1.3333333198682147 1.8546666479366865,-1.7399999824280201 c0.7813333254427738,-0.4349333289410116 1.6506666499968496,-0.6947999929833266 2.694666639453662,-0.6947999929833266 c2.7226666391708942,0 4.779999951727549,1.9119999806910197 4.779999951727549,6.171866604337978 V559.8253067278121 h-4.2879999566961775 V552.1160001390004 c0,-2.0547999792489056 -0.665333326614239,-3.243866633907379 -2.086666645593756,-3.243866633907379 c-1.0426666561369438,0 -1.7373333157882835,0.6942666596553793 -2.0559999792367867,1.535999984488183 c-0.08666666579143396,0.31719999679664823 -0.1453333318656354,0.7530666590615676 -0.1453333318656354,1.130666655248246 V559.8253067278121 h-4.2879999566961775 V551.8560001416262 c0,-1.7655999821694899 -0.6359999935771383,-2.9838666365330777 -2.0559999792367867,-2.9838666365330777 c-1.130666655248246,0 -1.7973333151823534,0.8693333245540759 -2.057333312556655,1.565199984193297 c-0.1453333318656354,0.3478666631536172 -0.1746666649027361,0.7519999924056731 -0.1746666649027361,1.1290666552644042 V559.8253067278121 h-4.2879999566961775 v-9.649439902551858 " stroke-width="0"/><path id="path154" style="fill:#2d68af;fill-opacity:1;fill-rule:nonzero;stroke:none" d="m531.6853279639287,560.9544800497421 l6.199999937387198,-21.005146454539073 h2.926666637110731 L534.6106612677196,560.9544800497421 h-2.925333303790863 " stroke-width="0"/><path id="path156" style="fill:#253c75;fill-opacity:1;fill-rule:nonzero;stroke:none" d="m118.01826547481917,134.02800436120384 c-10.778666557814647,0 -15.959866505490542,-8.290666582940558 -13.260399866085354,-17.88399981939236 c5.591066610203384,-19.870666465996003 41.492799580970896,-49.32799950184447 65.9527993339533,-49.32799950184447 c17.855999819675127,0 16.48933316681021,15.963999838782133 6.037333272363275,29.585333034555813 l-5.783999941588315,6.395999935407825 C150.2279984828716,123.15600447099843 130.99733201041235,134.02800436120384 118.01826547481917,134.02800436120384 zm87.4523991168323,-134.02533197983306 c-31.22399968467385,0.013333333198682146 -65.6186660039943,19.11733314027046 -87.20666578598056,37.20666629092253 l1.7073333160912487,2.4679999750760655 c33.505999661628294,-23.49333309607794 80.02199919187069,-38.771999608447814 92.84733239568305,-15.857333173192677 c6.770666598290794,12.095999877844443 -4.727999952252689,36.51066629795132 -20.91066645549321,55.81199943636359 c3.879999960816505,-8.523999913917496 1.323999986629137,-24.887999748660093 -21.242666452140394,-24.887999748660093 c-37.52986628765858,0 -111.3778655418795,49.707999498006906 -111.3778655418795,100.56266565110049 c0,20.379999794185657 14.12759985732764,33.673332993271764 37.405199622250905,33.673332993271764 c62.319332703980415,0 146.8419985170663,-102.15466563502312 146.8419985170663,-153.4626651168719 c-0.005333333279472859,-18.119999817009038 -10.430666561329042,-35.514666308009765 -38.063999615597794,-35.514666308009765 " stroke-width="0"/><path id="path158" style="fill:#253c75;fill-opacity:1;fill-rule:nonzero;stroke:none" d="m285.6986637814418,134.02800436120384 c-3.6186666301223345,0 -6.6399999329437085,-1.273333320474145 -8.5279999138771,-3.574666630566683 c-1.970666646765221,-2.4253333088402824 -2.5559999741873676,-5.85466660754133 -1.6173333170001445,-9.402666571710649 c2.06133331251626,-7.701333255558807 10.359999895376028,-13.73333319464261 18.879999809333917,-13.73333319464261 h20.051999797498077 l-7.1573332610525755,26.710666396919944 zm57.65199941778173,-80.09599919112338 c-5.745333275312137,-7.04933326214325 -15.022666514955175,-10.205333230271314 -21.666666447858486,-10.205333230271314 h-36.451999631877115 l-6.1853332708686475,23.074666433639322 h34.369332986242966 l3.2906666334347534,0.34799999648560404 c0.03599999963644179,0 3.167999968006878,0.3626666630041544 4.8933332839163475,2.7119999726119484 c1.4146666523801756,1.9519999802870662 1.6173333170001445,4.86933328415872 0.6039999939003012,8.679999912342076 l-1.6266666502392217,6.067999938720244 h-21.651999781339935 c-18.641333145077507,0 -44.623999549349406,13.375999864917928 -50.41199949089732,34.975999646783 c-2.8853333041948166,10.774666557855042 -0.36133332968428616,20.102666463653073 5.237333280442347,26.961333061055168 c5.554666610570981,6.806666597927235 16.02666650481594,10.557333226716525 27.35199972377655,10.557333226716525 h20.054666464137814 l-0.010666666558945718,0.003999999959604645 h25.491999742560395 l11.959999879217886,-44.647999549107034 l8.801333244450085,-32.822666335195834 c3.4533332984586758,-12.906666536324316 -0.2893333304114026,-21.10533312019397 -4.049333292439767,-25.705333073739308 " stroke-width="0"/><path id="path160" style="fill:#253c75;fill-opacity:1;fill-rule:nonzero;stroke:none" d="m593.7026606709591,43.72667193980908 c-9.857333233785711,0 -19.010666474681006,2.9173333038716533 -26.469333066023797,8.442666581405534 c-7.525333257336203,5.571999943729269 -11.674666548766087,12.26933320942731 -14.147999857121624,21.498666449555092 c-5.359999945870223,20.009333131262295 10.354666562096554,29.663999700428036 23.00266643436644,36.50533296467185 c9.059999908504519,4.913333283714371 16.887999829450806,9.145333240976084 15.202666513137382,15.419999844275901 c-1.205333321160866,4.506666621154565 -3.169333301326746,8.441333248085666 -14.319999855384625,8.441333248085666 h-34.03066632299644 l-6.174666604309702,23.073333100319456 h37.666666286277064 c10.101333231321595,0 19.418666470560677,-2.105333312071911 26.931999728018067,-7.871999920501938 c7.525333257336203,-5.782666608268446 11.773333214436335,-13.847999860151276 14.406666521176058,-23.68533309413896 c2.5146666412714525,-9.37199990535368 0.8119999917997427,-18.306666481790586 -5.209333280725114,-24.98666641433034 c-5.019999949303828,-5.5959999434868966 -12.24666654298955,-9.490666570821952 -18.618666478639746,-12.930666536081945 c-8.157333250953737,-4.391999955645899 -15.843999839993993,-8.533333247156573 -14.498666520246964,-13.558666529739874 c0.8186666583990837,-3.03199996938032 3.841333294540326,-7.2733332598811105 10.427999894689306,-7.2733332598811105 h33.09599966576882 l6.1853332708686475,-23.074666433639322 h-33.450666328853764 " stroke-width="0"/><path id="path162" style="fill:#253c75;fill-opacity:1;fill-rule:nonzero;stroke:none" d="m396.1946626655605,43.72667193980908 c-9.859999900425446,0 -19.01866647460021,2.9173333038716533 -26.475999732623137,8.442666581405534 c-7.521333257376598,5.571999943729269 -11.669333215486613,12.26933320942731 -14.157333190360703,21.498666449555092 c-5.358666612550354,20.009333131262295 10.378666561854184,29.663999700428036 23.01066643428565,36.50533296467185 c9.062666575144254,4.913333283714371 16.89333316273028,9.145333240976084 15.205333179777119,15.419999844275901 c-1.2079999878006025,4.506666621154565 -3.1706666346466146,8.441333248085666 -14.322666522024361,8.441333248085666 h-34.02266632307723 l-6.1853332708686475,23.073333100319456 h37.6693329529168 c10.109333231240802,0 19.429333137119624,-2.105333312071911 26.939999727937277,-7.871999920501938 c7.529333257295807,-5.782666608268446 11.773333214436335,-13.847999860151276 14.406666521176058,-23.68533309413896 c2.5106666413118477,-9.37199990535368 0.8039999918805334,-18.306666481790586 -5.2066666140853775,-24.98666641433034 c-5.014666616024355,-5.5959999434868966 -12.251999876269023,-9.490666570821952 -18.631999811838433,-12.930666536081945 c-8.146666584394792,-4.391999955645899 -15.835999840074784,-8.533333247156573 -14.483999853728415,-13.558666529739874 c0.8119999917997427,-3.03199996938032 3.839999961220458,-7.2733332598811105 10.415999894810493,-7.2733332598811105 h33.086666332529745 l6.194666604107725,-23.074666433639322 h-33.44266632893456 " stroke-width="0"/><path id="path164" style="fill:#253c75;fill-opacity:1;fill-rule:nonzero;stroke:none" d="m447.5906621465205,43.72667193980908 l-29.54133303500016,113.3813321883135 h24.951999748013765 l29.529333035121347,-113.3813321883135 h-24.939999748134955 " stroke-width="0"/><path id="path166" style="fill:#253c75;fill-opacity:1;fill-rule:nonzero;stroke:none" d="m538.9399945573317,43.72667193980908 c-43.938666222937144,0.16133333170405395 -66.93066599074464,29.426666369491493 -74.2346659169827,56.68933276083688 c-8.658666579224185,32.323999673565126 8.551999913634729,56.69199942747662 40.02799959576367,56.69199942747662 h21.094666453635025 l6.173333270989833,-23.073333100319456 h-21.08266645375621 c-11.78399988099528,0 -27.978666384114614,-9.273333239683431 -21.450666450039837,-33.61866632715716 c5.185333280967487,-19.35733313784674 24.043999757183514,-33.61466632719756 44.757332881336225,-33.61466632719756 h13.39066653143648 l6.1853332708686475,-23.074666433639322 h-14.86133318325112 " stroke-width="0"/><path id="path168" style="fill:#1b377c;fill-opacity:1;fill-rule:nonzero;stroke:none" d="m625.3946603509066,151.92400418047504 h2.1906666445434766 v-4.901333283835556 h1.7346666491485472 c1.1666666548846878,0 1.9813333133241668,0.13066666534708501 2.431999975439623,0.3906666627213869 c0.7813333254427738,0.47199999523334796 1.1906666546423155,1.422666652299385 1.1906666546423155,2.8626666377570564 v0.9906666566620834 l0.03599999963644179,0.39733332932072796 c0.015999999838418575,0.0546666661145968 0.021333333117891436,0.10133333230998433 0.033333332996705364,0.14799999850537182 c0.010666666558945718,0.03599999963644179 0.021333333117891436,0.07333333259275181 0.029333333037100725,0.11199999886893003 h2.0546666459169187 l-0.07066666595301538,-0.14799999850537182 c-0.04933333283512394,-0.10533333226958895 -0.08266666583182931,-0.3266666633677126 -0.11199999886893003,-0.651999993415557 c-0.018666666478155007,-0.33199999664718544 -0.03866666627617823,-0.6346666602572701 -0.030666666356968936,-0.9279999906282773 v-0.9093333241501224 c-0.00799999991920929,-0.627999993657929 -0.22133333109812364,-1.2719999871542766 -0.677333326493053,-1.92666664720957 c-0.45333332875519294,-0.6626666599745026 -1.1719999881641605,-1.0639999892548353 -2.149333311627562,-1.2226666543191527 c0.7666666589242234,-0.12399999874774396 1.3759999861039975,-0.3146666634888986 1.807999981741299,-0.6039999939003012 c0.8146666584394792,-0.5293333279876812 1.2159999877198115,-1.3386666531476874 1.2133333210800752,-2.4559999751972517 c0.0026666666397364295,-1.5626666508855476 -0.6373333268970066,-2.6119999736218324 -1.9213333139300972,-3.1506666348485908 c-0.7239999926884405,-0.29599999701074364 -1.8546666479366865,-0.43999999555651076 -3.4066666322632884,-0.43999999555651076 h-4.354666622689589 v12.437333207730706 m6.255999936821663,-6.707999932256988 c-0.46133332867440224,0.17866666486234076 -1.1559999883257421,0.27733333053258863 -2.0839999789540196,0.27733333053258863 h-1.9813333133241668 l-0.0026666666397364295,-4.506666621154565 h1.8693333144552369 c1.2159999877198115,0 2.1026666454321745,0.14799999850537182 2.654666639857615,0.45999999535453406 c0.5546666610651773,0.310666663529294 0.8359999915573705,0.9146666574295952 0.8359999915573705,1.8186666483002447 c0,0.9613333236249827 -0.4386666622366426,1.609333317080935 -1.2919999869522998,1.950666646967198 zm6.358666602451515,-7.4773332578209475 c-2.2213333109004454,-2.2026666444222904 -4.907999950434898,-3.3013332999936993 -8.051999918684148,-3.3013332999936993 c-3.1093333019326765,0 -5.781333274948579,1.0986666555714089 -7.989333252650342,3.3013332999936993 c-2.2159999776209727,2.2133333109812363 -3.311999966552645,4.882666617357401 -3.311999966552645,7.99733325256955 c0,3.1546666348081955 1.0959999889316725,5.8373332743830435 3.287999966795017,8.046666585404676 c2.206666644381895,2.218666644260709 4.878666617397798,3.3306666330308 8.021333252327178,3.3306666330308 c3.1439999682492497,0 5.822666607864493,-1.1119999887700909 8.03599991884573,-3.3306666330308 c2.219999977580577,-2.2239999775401817 3.331999966350668,-4.903999950475293 3.331999966350668,-8.046666585404676 c0,-3.1279999684108315 -1.1119999887700909,-5.797333274786997 -3.323999966431459,-7.99733325256955 zm-1.137333321847587,1.0973333222515407 c1.9053333140916786,1.9079999807314152 2.8506666378782426,4.205333290864349 2.8506666378782426,6.89999993031801 c0,2.7186666392112895 -0.9453333237865641,5.034666615822378 -2.8506666378782426,6.950666596473003 c-1.8933333142128645,1.914666647330756 -4.190666624345798,2.871999970996134 -6.9066665969173515,2.871999970996134 c-2.7079999726523436,0 -5.005333282785277,-0.957333323665378 -6.913333263516693,-2.871999970996134 c-1.8839999809737873,-1.9159999806506243 -2.826666638120615,-4.231999957261713 -2.826666638120615,-6.950666596473003 c0,-2.694666639453662 0.9506666570660369,-4.991999949586595 2.8386666379994288,-6.89999993031801 c1.914666647330756,-1.914666647330756 4.213333290783559,-2.865333304396793 6.893333263718669,-2.865333304396793 c2.7066666393324756,0 5.0186666159839595,0.9506666570660369 6.914666596836561,2.865333304396793 " stroke-width="0"/></g></g></g></svg>