
		<svg xmlns="http://www.w3.org/2000/svg" xmlns:xlink="http://www.w3.org/1999/xlink" version="1.1" width="3134.8314606741574" height="674.1573033707864">
			
			<g transform="scale(6.741573033707865) translate(10, 10)">
				<defs id="SvgjsDefs1014"/><g id="SvgjsG1015" featureKey="root" fill="#000"/><g id="SvgjsG1016" featureKey="symbol1" fill="#000" transform="matrix(0.7025784401478907,0,0,0.7025784401478907,0,5)"><g xmlns="http://www.w3.org/2000/svg"><path d="M36.019,18.573l16.673,34.111l31.327-14.111L69.812,87.709l-34.793,1.864l-23-41L36.019,18.573 M38.071,0L28.21,12.326   l-24,30L0,47.588l3.297,5.877l23,41l3.043,5.426l6.213-0.333l34.793-1.864l7.098-0.38l1.974-6.828l14.207-49.135l6.008-20.779   l-19.722,8.884L57.42,39.587L45.003,14.182L38.071,0L38.071,0z"/></g></g><g id="SvgjsG1017" featureKey="text1" fill="#000" transform="matrix(3.3444811502097447,0,0,3.3444811502097447,86.5217397313637,-22.976582992831602)"><path d="M6.78 13.42 c2.38 0 5.14 1.78 5.14 5.36 c0 3.7 -2.76 5.42 -5.14 5.42 c-1.8 0 -2.82 -1.06 -2.88 -1.48 l0 5.08 l-2.86 0 l0 -6.12 l0 -8.08 l2.86 0 l0 1.16 c0.06 -0.22 1.08 -1.34 2.88 -1.34 z M6.38 21.66 c1.44 0 2.76 -0.98 2.76 -2.88 c0 -1.84 -1.32 -2.82 -2.76 -2.82 c-1.4 0 -2.62 0.96 -2.62 2.82 c0 1.92 1.22 2.88 2.62 2.88 z M18.78 13.42 c2.36 0 5.44 1.78 5.44 5.42 s-3.08 5.36 -5.44 5.36 s-5.46 -1.72 -5.46 -5.36 s3.1 -5.42 5.46 -5.42 z M18.78 15.96 c-1.3 0 -2.68 0.98 -2.68 2.88 c0 1.84 1.38 2.82 2.68 2.82 c1.28 0 2.68 -0.98 2.68 -2.82 c0 -1.9 -1.4 -2.88 -2.68 -2.88 z M28.82 9.86 l0 14.14 l-2.86 0 l0 -14.14 l2.86 0 z M39.32000000000001 13.56 l2.86 0 l-6.36 14.24 l-2.86 0 l1.9 -4.16 l-4.5 -10.08 l2.86 0 l3.04 7 z M57.34 13.44 c2.16 0 4.12 1.4 4.12 4.88 l0 5.68 l-2.86 0 l0 -5.62 c0 -1.44 -0.66 -2.44 -2.14 -2.44 c-1.34 0 -2.18 1.14 -2.44 2.2 l0 5.86 l-2.86 0 l0 -5.62 c0 -1.44 -0.9 -2.44 -2.14 -2.44 c-1.4 0 -2.22 1 -2.44 2.2 l0 5.86 l-2.86 0 l0 -10.4 l2.86 0 l0 2 c0.06 -0.54 1.08 -2.16 3.16 -2.16 c1.48 0 2.96 0.8 3.76 2.34 c0.28 -0.66 1.48 -2.34 3.84 -2.34 z M68.52000000000001 13.42 c2.36 0 5.44 1.78 5.44 5.42 s-3.08 5.36 -5.44 5.36 s-5.46 -1.72 -5.46 -5.36 s3.1 -5.42 5.46 -5.42 z M68.52000000000001 15.96 c-1.3 0 -2.68 0.98 -2.68 2.88 c0 1.84 1.38 2.82 2.68 2.82 c1.28 0 2.68 -0.98 2.68 -2.82 c0 -1.9 -1.4 -2.88 -2.68 -2.88 z M82.16000000000001 13.44 c0.26 0 0.5 0 0.76 0.06 l0 2.74 c-0.24 -0.06 -0.48 -0.06 -0.68 -0.06 c-1.92 0 -3.5 1.38 -3.68 3.38 l0 4.44 l-2.86 0 l0 -10.4 l2.86 0 l0 2.6 c0.46 -1.58 1.72 -2.76 3.6 -2.76 z M90.30000000000001 13.42 c2.38 0 5.14 1.78 5.14 5.36 c0 3.7 -2.76 5.42 -5.14 5.42 c-1.8 0 -2.82 -1.06 -2.88 -1.48 l0 5.08 l-2.86 0 l0 -6.12 l0 -8.08 l2.86 0 l0 1.16 c0.06 -0.22 1.08 -1.34 2.88 -1.34 z M89.9 21.66 c1.44 0 2.76 -0.98 2.76 -2.88 c0 -1.84 -1.32 -2.82 -2.76 -2.82 c-1.4 0 -2.62 0.96 -2.62 2.82 c0 1.92 1.22 2.88 2.62 2.88 z M103.36000000000001 13.44 c1.98 0 3.94 1.3 3.94 4.58 l0 5.98 l-2.86 0 l0 -5.78 c0 -1.7 -0.66 -2.28 -1.76 -2.28 c-1.52 0 -2.42 1.44 -2.64 2.16 l0 5.9 l-2.86 0 l0 -14.14 l2.86 0 l0 5.66 c0.2 -0.54 1.32 -2.08 3.32 -2.08 z"/></g>
			</g>
		</svg>
	