<?xml version="1.0" encoding="UTF-8"?>
<svg preserveAspectRatio="xMidYMid" version="1.1" viewBox="0 0 256 256" xmlns="http://www.w3.org/2000/svg">
<polygon transform="translate(128 128) scale(1 -1) translate(-128 -128)" points="0 128 0 0 128 0 256 0 256 128 256 256 128 256 0 256" fill="#007ACC"/>
<path transform="translate(101.63 176.14) rotate(180) translate(-101.63 -176.14)" d="m146.66 223.44 0.081269-10.484h-16.66-16.66v-47.34-47.34h-11.784-11.784v47.34 47.34h-16.66-16.66v10.281c0 5.6889 0.1219 10.443 0.28444 10.565 0.1219 0.16254 20.399 0.24381 44.983 0.20318l44.739-0.1219 0.1219-10.443z" fill="#fff"/>
<path transform="translate(194.58 176.19) scale(1 -1) translate(-194.58 -176.19)" d="m206.57 234.27c6.5016-1.6254 11.459-4.5105 16.01-9.2241 2.3568-2.5194 5.8514-7.1111 6.1359-8.2083 0.08127-0.32508-11.053-7.8019-17.798-11.987-0.24381-0.16254-1.219 0.89397-2.3162 2.5194-3.2914 4.7949-6.7454 6.8673-12.028 7.233-7.7613 0.52825-12.759-3.5352-12.719-10.321 0-1.9911 0.28444-3.1695 1.0971-4.7949 1.7067-3.5352 4.8762-5.6483 14.832-9.9556 18.326-7.8832 26.169-13.084 31.045-20.48 5.4451-8.2489 6.6641-21.415 2.9663-31.208-4.0635-10.646-14.141-17.879-28.323-20.277-4.3886-0.77206-14.791-0.65016-19.505 0.20317-10.281 1.8286-20.033 6.9079-26.047 13.572-2.3568 2.6006-6.9486 9.3867-6.6641 9.8743 0.1219 0.16254 1.1784 0.8127 2.3568 1.5035 1.1378 0.65016 5.4451 3.1289 9.5086 5.4857l7.3549 4.2667 1.5441-2.2756c2.1537-3.2914 6.8673-7.8019 9.7117-9.3054 8.1676-4.3073 19.383-3.6978 24.909 1.2597 2.3568 2.1536 3.3321 4.3886 3.3321 7.68 0 2.9663-0.36571 4.2667-1.9098 6.5016-1.9911 2.8444-6.0546 5.2419-17.595 10.24-13.206 5.6889-18.895 9.2241-24.097 14.832-3.007 3.2508-5.8514 8.4521-7.0298 12.8-0.97524 3.6165-1.219 12.678-0.44698 16.335 2.7225 12.759 12.353 21.658 26.25 24.3 4.5105 0.85333 14.994 0.52825 19.423-0.56889z" fill="#fff"/>
</svg>
